<?xml version="1.0" encoding="utf-8"?>
<!-- Generator: Adobe Illustrator 19.2.1, SVG Export Plug-In . SVG Version: 6.00 Build 0)  -->
<svg version="1.1" id="Layer_1" xmlns="http://www.w3.org/2000/svg" xmlns:xlink="http://www.w3.org/1999/xlink" x="0px" y="0px"
	 viewBox="0 0 525.3 328" style="enable-background:new 0 0 525.3 328;" xml:space="preserve">
<style type="text/css">
	.st0{enable-background:new    ;}
	.st1{fill:#FFFFFF;}
</style>
<g class="st0">
	<path class="st1" d="M76.4,96.9c0,7.5,0.3,13.8,0.8,18.7c-5.6-0.2-15-0.4-28.2-0.4c-17.9,0-31.2,0.1-40.1,0.4v-2.5
		c2.7-0.1,4.7-0.4,5.9-1c1.2-0.5,2.1-1.5,2.6-2.9c0.5-1.4,0.7-3.6,0.7-6.7v-61c0-3.1-0.2-5.3-0.7-6.7c-0.5-1.4-1.3-2.4-2.6-2.9
		c-1.2-0.5-3.2-0.8-5.9-1v-2.5c8.8,0.2,22.2,0.4,40.1,0.4c12,0,20.6-0.1,25.7-0.4C74.2,35.3,74,41.4,74,46.7c0,3.6,0.1,6.4,0.4,8.3
		h-2.8c-0.8-6-2.1-10.7-3.8-14.1c-1.7-3.4-3.9-5.9-6.5-7.4c-2.6-1.5-5.9-2.2-9.8-2.2h-5c-2.6,0-4.4,0.2-5.6,0.6
		c-1.1,0.4-1.9,1.2-2.3,2.4c-0.4,1.2-0.6,3.1-0.6,5.7v30.4h3.9c4.4,0,7.7-1.6,10-4.8c2.2-3.2,3.8-7,4.7-11.4h2.8
		c-0.3,4-0.4,7.9-0.4,11.6l0.1,5.9c0,4.2,0.2,10,0.7,17.5h-2.8C55.1,78.5,50.1,73,41.7,73h-3.9v31c0,2.6,0.2,4.6,0.6,5.7
		c0.4,1.2,1.2,2,2.3,2.4c1.1,0.4,3,0.6,5.6,0.6h6.1c5.8,0,10.4-2,14-6c3.6-4,6.1-10.7,7.6-20.2h2.8C76.5,89.3,76.4,92.7,76.4,96.9z"
		/>
	<path class="st1" d="M145.3,111.2c1,1,2.1,1.6,3.5,1.8v2.6c-6.6-0.3-11-0.5-13.2-0.5c-2.4,0-7.7,0.2-16,0.5V113
		c1.3,0,2.3-0.2,3-0.7c0.7-0.4,1.1-1,1.1-1.8c0-0.5-0.2-1.1-0.5-1.7l-12.9-19l-4.3,5.4c-2.7,3.5-4.1,6.8-4.1,9.8
		c0,2.3,0.8,4.2,2.4,5.7c1.6,1.5,3.8,2.3,6.5,2.5v2.5c-4.8-0.2-10.7-0.4-17.7-0.4c-3.4,0-6.2,0.1-8.6,0.4v-2.5
		c1.8-0.6,3.6-1.7,5.3-3.2c1.7-1.5,3.7-3.6,5.9-6.3l13.2-16L90.8,60.8c-1.5-2.2-2.7-3.7-3.7-4.6c-0.9-0.9-2-1.4-3.2-1.6V52
		c7.2,0.3,12.1,0.5,14.7,0.5c2.2,0,7-0.2,14.5-0.5v2.6c-1.2,0-2.3,0.2-3,0.7c-0.8,0.4-1.2,1-1.2,1.8c0,0.5,0.2,1.1,0.6,1.7L121,76
		l4.7-6.2c2.8-3.7,4.3-6.8,4.3-9.4c0-1.7-0.6-3.1-1.9-4.1c-1.3-1-3.1-1.6-5.6-1.8V52c4.7,0.2,9.3,0.4,13.9,0.4
		c3.5,0,6.4-0.1,8.7-0.4v2.5c-3.4,1.2-7.2,4.3-11.3,9.5l-11.3,14.2l19.3,28.7C143.1,108.8,144.3,110.2,145.3,111.2z"/>
	<path class="st1" d="M205.4,132c0.5,1.2,1.3,2.1,2.3,2.6c1,0.5,2.5,0.8,4.3,0.8v2.6c-0.8,0-2.9-0.1-6.1-0.3
		c-3.2-0.2-6.3-0.2-9.4-0.2c-4.1,0-8.2,0.1-12.5,0.2s-7,0.3-8.2,0.3v-2.6c3.8,0,6.6-0.7,8.4-2.1c1.8-1.4,2.7-3.9,2.7-7.5v-19.6
		c-1.4,3.7-3.5,6.5-6.2,8.4c-2.7,1.9-5.9,2.9-9.7,2.9c-4.9,0-9.2-1.2-13-3.7s-6.8-6.2-8.9-11.3c-2.2-5.1-3.3-11.4-3.3-18.9
		c0-7.2,1.1-13.3,3.4-18.3c2.3-5,5.4-8.7,9.5-11.2c4-2.5,8.7-3.7,14.1-3.7c3.4,0,6.3,0.4,8.8,1.1c2.4,0.7,4.6,2,6.5,3.8
		c2.9,0.2,5.8-0.3,8.8-1.3c2.9-1,5.2-2.3,6.8-4l1.9,1c-0.6,2.1-0.8,4.4-0.8,7v68.8C204.7,129.1,204.9,130.8,205.4,132z M177.5,52.9
		c-8.7,0-13,10.3-13,30.9c0,10,1,17.3,3.1,21.7c2,4.4,5,6.6,8.8,6.6c2.4,0,4.7-0.9,6.7-2.8c2-1.9,3.4-4.4,4-7.5v-45
		C184.6,54.2,181.5,52.9,177.5,52.9z"/>
	<path class="st1" d="M274.3,110.5c1.2,1.7,3.2,2.6,6.1,2.6v2.6c-2.6-0.2-5.1-0.4-7.6-0.4c-7.2,0-13.2,0.6-18,1.7v-11.1
		c-3.7,7.6-10.3,11.5-19.8,11.5c-6.1,0-10.6-1.6-13.4-4.8c-1.4-1.5-2.3-3.5-2.9-6.1c-0.6-2.5-0.9-5.8-0.9-9.9V65.4
		c0-3.8-0.6-6.5-1.8-8.2c-1.2-1.7-3.2-2.6-6.1-2.6V52c2.6,0.2,5.1,0.4,7.6,0.4c7.2,0,13.2-0.6,18-1.7v50.9c0,3.4,0.5,6,1.5,7.7
		c1,1.7,3,2.6,5.8,2.6c2.2,0,4.2-0.6,6-1.9c1.8-1.3,3.3-3,4.4-5.2c1.1-2.2,1.6-4.6,1.6-7.2V65.4c0-3.8-0.6-6.5-1.8-8.2
		c-1.2-1.7-3.2-2.6-6.1-2.6V52c2.6,0.2,5.1,0.4,7.6,0.4c7.2,0,13.2-0.6,18-1.7v51.5C272.5,106,273.1,108.8,274.3,110.5z"/>
	<path class="st1" d="M312.2,109.6c0.5,1.3,1.3,2.2,2.5,2.7c1.1,0.5,2.7,0.8,4.6,0.8v2.6c-8.2-0.3-13.6-0.5-16.3-0.5
		c-2.6,0-8.3,0.2-17.1,0.5V113c2,0,3.5-0.3,4.7-0.8s2-1.4,2.5-2.7c0.5-1.3,0.8-3.1,0.8-5.3V65.4c0-3.8-0.6-6.6-1.7-8.3
		c-1.2-1.7-3.2-2.6-6.1-2.6V52c2.6,0.2,5.1,0.4,7.6,0.4c7.2,0,13.2-0.6,18-1.7v53.5C311.4,106.5,311.7,108.3,312.2,109.6z
		 M309.9,22.8c2,1.7,3,4,3,6.9c0,3-1,5.3-3,7c-2,1.7-4.7,2.5-8.1,2.5c-3.5,0-6.2-0.8-8.2-2.5c-2-1.7-3-4-3-7c0-2.9,1-5.2,3-6.9
		c2-1.7,4.7-2.5,8.2-2.5C305.2,20.3,307.9,21.2,309.9,22.8z"/>
	<path class="st1" d="M333.1,108.5c2.7,4,6.4,6,11.3,6c2.4,0,4.5-0.7,6.2-2.2c1.7-1.5,2.6-3.7,2.6-6.6c0-2.3-0.5-4.3-1.5-6.1
		c-1-1.8-2.3-3.4-3.9-4.8c-1.6-1.4-3.9-3.3-7-5.8c-3.8-3.1-6.7-5.5-8.6-7.3c-1.9-1.8-3.5-3.9-4.9-6.3c-1.4-2.4-2-5.2-2-8.3
		c0-3.5,1-6.6,2.9-9.1c1.9-2.6,4.5-4.5,7.7-5.8c3.2-1.3,6.8-2,10.6-2c3.1,0,6,0.4,8.6,1.1c2.6,0.8,4.6,1.6,6.1,2.6
		c0.8,0.6,1.5,0.8,2.2,0.8c1.5,0,2.5-1.5,2.9-4.5h2.7c-0.3,4.1-0.5,11.3-0.5,21.6h-2.7c-0.7-5.4-2.3-9.9-4.8-13.5
		c-2.5-3.7-6.1-5.5-10.9-5.5c-2.4,0-4.4,0.7-6,2.1c-1.6,1.4-2.3,3.3-2.3,5.8c0,2.8,0.9,5.1,2.8,7.1c1.8,2,4.1,3.9,6.7,5.8
		c2.6,1.8,4.5,3.2,5.7,4.1c3.4,2.5,6,4.7,8,6.6s3.6,4,4.8,6.4c1.2,2.4,1.9,5.1,1.9,8.2c0,3.6-1.1,6.8-3.2,9.5
		c-2.1,2.8-4.9,4.9-8.5,6.4c-3.6,1.5-7.5,2.3-11.7,2.3c-4.4,0-8.2-0.9-11.4-2.6c-2.4-1.2-4.4-2.1-5.8-2.6c-0.2-0.1-0.4-0.1-0.6-0.1
		c-1.3,0-2.3,1.5-2.9,4.4h-2.7c0.3-4.7,0.5-12.9,0.5-24.6h2.7C328.7,99,330.4,104.5,333.1,108.5z"/>
	<path class="st1" d="M402.8,109.6c0.5,1.3,1.3,2.2,2.5,2.7c1.1,0.5,2.7,0.8,4.6,0.8v2.6c-8.2-0.3-13.6-0.5-16.3-0.5
		c-2.6,0-8.3,0.2-17.1,0.5V113c2,0,3.5-0.3,4.7-0.8s2-1.4,2.5-2.7c0.5-1.3,0.8-3.1,0.8-5.3V65.4c0-3.8-0.6-6.6-1.7-8.3
		c-1.2-1.7-3.2-2.6-6.1-2.6V52c2.6,0.2,5.1,0.4,7.6,0.4c7.2,0,13.2-0.6,18-1.7v53.5C402,106.5,402.3,108.3,402.8,109.6z M400.5,22.8
		c2,1.7,3,4,3,6.9c0,3-1,5.3-3,7c-2,1.7-4.7,2.5-8.1,2.5c-3.5,0-6.2-0.8-8.2-2.5c-2-1.7-3-4-3-7c0-2.9,1-5.2,3-6.9
		c2-1.7,4.7-2.5,8.2-2.5C395.8,20.3,398.5,21.2,400.5,22.8z"/>
	<path class="st1" d="M452.3,52.1v2.5h-14.5v49.6c0,2.4,0.4,4.2,1.3,5.2c0.9,1,2.2,1.5,4.1,1.5c3.5,0,6.3-2.5,8.3-7.4l2.1,1.1
		c-3.1,8.4-8.7,12.7-16.8,12.7c-5.4,0-9.5-1.4-12.3-4.2c-1.7-1.7-2.9-3.8-3.5-6.4c-0.6-2.6-0.9-6.2-0.9-10.7V54.6h-10.3v-2.5H420
		V35.8c6.8,0,12.7-1.3,17.7-4v20.3H452.3z"/>
	<path class="st1" d="M473.2,83.4c0,5.4,0.8,10,2.3,13.5c1.5,3.6,3.5,6.2,5.9,7.9c2.4,1.7,5,2.5,7.8,2.5c6.8,0,12.2-3.3,16.3-9.8
		l2.2,0.7c-1,3.4-2.7,6.5-4.8,9.4c-2.2,2.9-4.9,5.3-8.3,7.1c-3.3,1.8-7.2,2.7-11.4,2.7c-5.6,0-10.6-1.2-14.9-3.6
		c-4.3-2.4-7.6-6.1-10-11c-2.4-4.9-3.6-11-3.6-18.3c0-7.4,1.3-13.7,3.8-18.8c2.6-5.1,6.1-8.9,10.6-11.5c4.5-2.6,9.7-3.8,15.7-3.8
		c15.4,0,23.1,9.1,23.1,27.3h-34.5C473.3,78.8,473.2,80.7,473.2,83.4z M490.5,59.3c-1.4-4.2-3.6-6.4-6.5-6.4c-2.9,0-5.4,1.8-7.3,5.4
		c-1.9,3.6-3.1,9.3-3.6,16.9h19.3C492.6,68.9,491.9,63.5,490.5,59.3z"/>
</g>
<g class="st0">
	<path class="st1" d="M19.6,143.2l3.8-0.1c11.5-0.2,18-0.4,19.3-0.4c16,0,28,3.6,35.9,10.9c7.9,7.2,11.9,17.8,11.9,31.7
		c0,8.9-1.9,16.7-5.8,23.4c-3.9,6.7-9.5,11.9-16.9,15.6c-7.4,3.7-16.1,5.5-26.2,5.5c-1.2,0-4-0.1-8.4-0.2c-4.4-0.1-7.6-0.2-9.5-0.2
		c-8.4,0-14.8,0.1-18.9,0.4v-2.5c2.7-0.1,4.7-0.4,5.9-1c1.2-0.5,2.1-1.5,2.6-2.9c0.5-1.4,0.7-3.6,0.7-6.7v-61c0-3.1-0.2-5.3-0.7-6.7
		c-0.5-1.4-1.3-2.4-2.6-2.9c-1.2-0.5-3.2-0.8-5.9-1v-2.5C10,143.1,14.9,143.2,19.6,143.2z M34.2,223.7c0.5,1.5,1.4,2.5,2.6,3.1
		c1.3,0.6,3.2,0.9,5.8,0.9c6.8,0,12.2-1.6,16.2-4.8s6.9-7.8,8.6-13.9c1.7-6.1,2.6-13.8,2.6-23.1c0-9.3-0.9-17-2.8-23
		c-1.9-6-4.8-10.5-8.9-13.4c-4-3-9.3-4.4-15.9-4.4c-2.6,0-4.5,0.3-5.7,0.9c-1.3,0.6-2.1,1.6-2.6,3.1c-0.5,1.5-0.7,3.7-0.7,6.6v61.5
		C33.5,220,33.8,222.2,34.2,223.7z"/>
	<path class="st1" d="M114.2,197.6c0,5.4,0.8,10,2.3,13.5c1.5,3.6,3.5,6.2,5.9,7.9c2.4,1.7,5,2.5,7.8,2.5c6.8,0,12.2-3.3,16.3-9.8
		l2.2,0.7c-1,3.4-2.7,6.5-4.8,9.4c-2.2,2.9-4.9,5.3-8.3,7.1c-3.3,1.8-7.2,2.7-11.4,2.7c-5.6,0-10.6-1.2-14.9-3.6
		c-4.3-2.4-7.6-6.1-10-11c-2.4-4.9-3.6-11-3.6-18.3c0-7.4,1.3-13.7,3.8-18.8c2.6-5.1,6.1-8.9,10.6-11.5c4.5-2.6,9.7-3.8,15.7-3.8
		c15.4,0,23.1,9.1,23.1,27.3h-34.5C114.2,193,114.2,195,114.2,197.6z M131.4,173.5c-1.4-4.2-3.6-6.4-6.5-6.4c-2.9,0-5.4,1.8-7.3,5.4
		c-1.9,3.6-3.1,9.3-3.6,16.9h19.3C133.5,183.1,132.8,177.8,131.4,173.5z"/>
	<path class="st1" d="M193.6,164.6c3.4,0,6.1,0.4,8.3,1.2c2.1,0.8,3.9,2,5.3,3.5c1.4,1.6,2.3,3.6,2.9,6.1s0.9,5.8,0.9,10v33.1
		c0,2.3,0.3,4.1,0.8,5.3c0.5,1.3,1.3,2.2,2.5,2.7c1.1,0.5,2.7,0.8,4.6,0.8v2.6c-8.2-0.3-13.6-0.5-16.2-0.5c-2.5,0-7.9,0.2-16,0.5
		v-2.6c1.7,0,3-0.3,4-0.8s1.7-1.4,2.1-2.7c0.4-1.3,0.6-3.1,0.6-5.3v-38.3c0-3.4-0.6-5.9-1.7-7.6c-1.1-1.7-3.1-2.6-6-2.6
		c-2.2,0-4.3,0.6-6.2,1.9c-1.9,1.2-3.3,3-4.4,5.1c-1.1,2.2-1.6,4.6-1.6,7.2v34.2c0,2.3,0.2,4.1,0.7,5.3c0.4,1.3,1.1,2.2,2.1,2.7
		s2.3,0.8,3.9,0.8v2.6c-7.5-0.3-12.6-0.5-15.3-0.5c-2.5,0-8.2,0.2-17,0.5v-2.6c2,0,3.5-0.3,4.7-0.8s2-1.4,2.5-2.7
		c0.5-1.3,0.8-3.1,0.8-5.3v-38.8c0-3.8-0.6-6.6-1.7-8.3c-1.2-1.7-3.2-2.6-6.1-2.6v-2.6c2.6,0.2,5.1,0.4,7.6,0.4
		c7.2,0,13.2-0.6,18-1.7v11C177.1,168.4,183.9,164.6,193.6,164.6z"/>
	<path class="st1" d="M255.5,166.4v2.5H241v49.6c0,2.4,0.4,4.2,1.3,5.2c0.9,1,2.2,1.5,4.1,1.5c3.5,0,6.3-2.5,8.3-7.4l2.1,1.1
		c-3.1,8.4-8.7,12.7-16.8,12.7c-5.4,0-9.5-1.4-12.3-4.2c-1.7-1.7-2.9-3.8-3.5-6.4c-0.6-2.6-0.9-6.2-0.9-10.7v-41.4h-10.3v-2.5h10.3
		v-16.3c6.8,0,12.7-1.3,17.7-4v20.3H255.5z"/>
	<path class="st1" d="M285.6,223.8c0.5,1.3,1.3,2.2,2.5,2.7c1.1,0.5,2.7,0.8,4.6,0.8v2.6c-8.2-0.3-13.6-0.5-16.3-0.5
		c-2.6,0-8.3,0.2-17.1,0.5v-2.6c2,0,3.5-0.3,4.7-0.8s2-1.4,2.5-2.7c0.5-1.3,0.8-3.1,0.8-5.3v-38.8c0-3.8-0.6-6.6-1.7-8.3
		c-1.2-1.7-3.2-2.6-6.1-2.6v-2.6c2.6,0.2,5.1,0.4,7.6,0.4c7.2,0,13.2-0.6,18-1.7v53.5C284.8,220.7,285.1,222.5,285.6,223.8z
		 M283.3,137.1c2,1.7,3,4,3,6.9c0,3-1,5.3-3,7c-2,1.7-4.7,2.5-8.1,2.5c-3.5,0-6.2-0.8-8.2-2.5c-2-1.7-3-4-3-7c0-2.9,1-5.2,3-6.9
		c2-1.7,4.7-2.5,8.2-2.5C278.6,134.6,281.3,135.4,283.3,137.1z"/>
	<path class="st1" d="M304,222.8c2.7,4,6.4,6,11.3,6c2.4,0,4.5-0.7,6.2-2.2c1.7-1.5,2.6-3.7,2.6-6.6c0-2.3-0.5-4.3-1.5-6.1
		c-1-1.8-2.3-3.4-3.9-4.8c-1.6-1.4-3.9-3.3-7-5.8c-3.8-3.1-6.7-5.5-8.6-7.3c-1.9-1.8-3.5-3.9-4.9-6.3c-1.4-2.4-2-5.2-2-8.3
		c0-3.5,1-6.6,2.9-9.1c1.9-2.6,4.5-4.5,7.7-5.8c3.2-1.3,6.8-2,10.6-2c3.1,0,6,0.4,8.6,1.1c2.6,0.8,4.6,1.6,6.1,2.6
		c0.8,0.6,1.5,0.8,2.2,0.8c1.5,0,2.5-1.5,2.9-4.5h2.7c-0.3,4.1-0.5,11.3-0.5,21.6h-2.7c-0.7-5.4-2.3-9.9-4.8-13.5
		c-2.5-3.7-6.1-5.5-10.9-5.5c-2.4,0-4.4,0.7-6,2.1c-1.6,1.4-2.3,3.3-2.3,5.8c0,2.8,0.9,5.1,2.8,7.1c1.8,2,4.1,3.9,6.7,5.8
		c2.6,1.8,4.5,3.2,5.7,4.1c3.4,2.5,6,4.7,8,6.6s3.6,4,4.8,6.4c1.2,2.4,1.9,5.1,1.9,8.2c0,3.6-1.1,6.8-3.2,9.5
		c-2.1,2.8-4.9,4.9-8.5,6.4c-3.6,1.5-7.5,2.3-11.7,2.3c-4.4,0-8.2-0.9-11.4-2.6c-2.4-1.2-4.4-2.1-5.8-2.6c-0.2-0.1-0.4-0.1-0.6-0.1
		c-1.3,0-2.3,1.5-2.9,4.4h-2.7c0.3-4.7,0.5-12.9,0.5-24.6h2.7C299.6,213.2,301.3,218.8,304,222.8z"/>
	<path class="st1" d="M387,166.4v2.5h-14.5v49.6c0,2.4,0.4,4.2,1.3,5.2c0.9,1,2.2,1.5,4.1,1.5c3.5,0,6.3-2.5,8.3-7.4l2.1,1.1
		c-3.1,8.4-8.7,12.7-16.8,12.7c-5.4,0-9.5-1.4-12.3-4.2c-1.7-1.7-2.9-3.8-3.5-6.4c-0.6-2.6-0.9-6.2-0.9-10.7v-41.4h-10.3v-2.5h10.3
		v-16.3c6.8,0,12.7-1.3,17.7-4v20.3H387z"/>
	<path class="st1" d="M423,167.9c2.9-2.2,6.3-3.3,10-3.3c2.5,0,4.6,0.5,6.2,1.6c1.7,1.1,2.9,2.5,3.7,4.2c0.8,1.7,1.2,3.5,1.2,5.5
		c0,3-0.9,5.5-2.6,7.4c-1.8,1.9-4.1,2.9-7,2.9c-2.8,0-5-0.7-6.6-2.1s-2.4-3.3-2.4-5.7c0-3.9,1.8-7.1,5.4-9.6c-0.5-0.1-1-0.2-1.5-0.2
		c-0.6,0-1.2,0.1-1.9,0.3c-2.1,0.3-4,1.3-5.7,3c-1.7,1.7-3.1,3.7-4.1,6c-1,2.3-1.5,4.6-1.5,6.8v32.6c0,3.8,0.9,6.4,2.8,7.9
		c1.8,1.5,4.8,2.2,8.8,2.2v2.6c-10.2-0.3-16.8-0.5-19.6-0.5c-2.6,0-8.5,0.2-17.6,0.5v-2.6c2,0,3.5-0.3,4.7-0.8s2-1.4,2.5-2.7
		c0.5-1.3,0.8-3.1,0.8-5.3v-38.8c0-3.8-0.6-6.6-1.7-8.3c-1.2-1.7-3.2-2.6-6.1-2.6v-2.6c2.6,0.2,5.1,0.4,7.6,0.4
		c7.2,0,13.2-0.6,18-1.7v11.4C417.8,172.9,420.1,170,423,167.9z"/>
	<path class="st1" d="M498.8,166.6c4.1,0,7.3-0.1,9.5-0.4v2.5c-1.7,0.4-3.3,1.5-4.7,3.1c-1.4,1.6-2.7,4.1-3.9,7.5l-22,61.9
		c-1.6,4.3-3.4,7.2-5.4,8.8c-2.4,2-6,3.1-10.7,3.1c-2.1,0-4.2-0.4-6.3-1.1c-2.1-0.7-3.8-1.8-5.1-3.3c-1.3-1.5-2-3.3-2-5.5
		c0-2.5,0.9-4.5,2.7-6.1c1.8-1.5,4.2-2.3,7.1-2.3c2.8,0,5,0.7,6.7,2c1.7,1.4,2.6,3.3,2.6,5.7c0,1.7-0.6,3.3-1.7,4.7
		c-1.1,1.5-2.6,2.6-4.5,3.3c0.6,0.1,1.5,0.1,2.8,0.1c5.1,0,8.9-3.2,11.2-9.7l2-5.9l-26.1-59.3c-1.3-2.8-2.6-4.7-3.8-5.6
		c-1.3-0.9-2.5-1.3-3.8-1.3v-2.6c5.4,0.5,11,0.7,16.9,0.7c4.8,0,10.5-0.2,17.1-0.7v2.6c-1.8,0-3.1,0.1-4.1,0.2s-1.9,0.4-2.6,0.9
		c-0.7,0.5-1.1,1.3-1.1,2.3c0,1,0.3,2.1,0.8,3.5l15.1,36.3l8.4-23.7c1.3-3.9,2-7.2,2-9.8c0-3.1-0.8-5.5-2.4-7.1
		c-1.6-1.6-3.8-2.5-6.7-2.7v-2.5C490.7,166.5,494.7,166.6,498.8,166.6z"/>
</g>
<g class="st0">
	<path class="st1" d="M21.8,301.2l-7.5-21.5h-0.1c0.2,3.2,0.3,6.2,0.3,9v12.5h-3.8v-25.7h5.9l7.1,20.4h0.1l7.3-20.4h5.9v25.7h-4
		v-12.7c0-1.3,0-2.9,0.1-5c0.1-2.1,0.1-3.3,0.2-3.7h-0.1l-7.7,21.4H21.8z"/>
	<path class="st1" d="M50.2,301.6c-3,0-5.4-0.9-7.1-2.6c-1.7-1.8-2.6-4.2-2.6-7.3c0-3.2,0.8-5.7,2.4-7.5c1.6-1.8,3.8-2.7,6.5-2.7
		c2.6,0,4.6,0.8,6.1,2.3c1.5,1.6,2.2,3.7,2.2,6.4v2.2h-13c0.1,1.9,0.6,3.3,1.5,4.4s2.3,1.5,4.1,1.5c1.1,0,2.2-0.1,3.2-0.3
		c1-0.2,2.1-0.6,3.2-1.1v3.4c-1,0.5-2,0.8-3.1,1C52.7,301.5,51.5,301.6,50.2,301.6z M49.4,284.5c-1.3,0-2.4,0.4-3.2,1.2
		s-1.3,2-1.4,3.6h8.8c0-1.6-0.4-2.8-1.2-3.6S50.8,284.5,49.4,284.5z"/>
	<path class="st1" d="M70.6,301.6c-3,0-5.4-0.9-7.1-2.6c-1.7-1.8-2.6-4.2-2.6-7.3c0-3.2,0.8-5.7,2.4-7.5c1.6-1.8,3.8-2.7,6.5-2.7
		c2.6,0,4.6,0.8,6.1,2.3c1.5,1.6,2.2,3.7,2.2,6.4v2.2h-13c0.1,1.9,0.6,3.3,1.5,4.4s2.3,1.5,4.1,1.5c1.1,0,2.2-0.1,3.2-0.3
		c1-0.2,2.1-0.6,3.2-1.1v3.4c-1,0.5-2,0.8-3.1,1C73.1,301.5,71.9,301.6,70.6,301.6z M69.8,284.5c-1.3,0-2.4,0.4-3.2,1.2
		s-1.3,2-1.4,3.6h8.8c0-1.6-0.4-2.8-1.2-3.6S71.1,284.5,69.8,284.5z"/>
	<path class="st1" d="M89.7,298.2c1,0,2-0.2,3-0.5v3.1c-0.5,0.2-1,0.4-1.8,0.5s-1.5,0.2-2.2,0.2c-3.9,0-5.9-2.1-5.9-6.2v-10.5h-2.7
		v-1.8l2.8-1.5l1.4-4.1H87v4.3h5.5v3.1H87v10.4c0,1,0.2,1.7,0.7,2.2S88.9,298.2,89.7,298.2z"/>
	<path class="st1" d="M126.6,288.1c0,4.2-1.2,7.5-3.5,9.7s-5.7,3.4-10.2,3.4h-7.2v-25.7h7.9c4.1,0,7.3,1.1,9.5,3.3
		C125.5,281,126.6,284.1,126.6,288.1z M122.2,288.3c0-6.2-2.9-9.2-8.6-9.2h-3.6v18.7h3C119.1,297.7,122.2,294.5,122.2,288.3z"/>
	<path class="st1" d="M141.2,281.4c0.8,0,1.5,0.1,2.1,0.2l-0.4,3.9c-0.6-0.1-1.2-0.2-1.8-0.2c-1.7,0-3,0.5-4,1.6
		c-1,1.1-1.5,2.5-1.5,4.2v10.2h-4.1v-19.4h3.2l0.5,3.4h0.2c0.6-1.2,1.5-2.1,2.5-2.8S140,281.4,141.2,281.4z"/>
	<path class="st1" d="M140.8,299c0-0.9,0.2-1.5,0.7-2s1.1-0.7,1.9-0.7c0.9,0,1.5,0.2,2,0.7c0.4,0.5,0.7,1.1,0.7,1.9
		c0,0.8-0.2,1.5-0.7,2c-0.5,0.5-1.1,0.7-1.9,0.7c-0.8,0-1.5-0.2-1.9-0.7S140.8,299.9,140.8,299z"/>
	<path class="st1" d="M171.5,301.2l-7.5-21.5h-0.1c0.2,3.2,0.3,6.2,0.3,9v12.5h-3.8v-25.7h5.9l7.1,20.4h0.1l7.3-20.4h5.9v25.7h-4
		v-12.7c0-1.3,0-2.9,0.1-5c0.1-2.1,0.1-3.3,0.2-3.7H183l-7.7,21.4H171.5z"/>
	<path class="st1" d="M205.1,301.2l-0.6-2.5h-0.2c-0.6,0.9-1.4,1.6-2.5,2.1s-2.3,0.8-3.6,0.8c-2.4,0-4.1-0.6-5.3-1.8
		c-1.2-1.2-1.7-2.9-1.7-5.3v-12.7h4.2v12c0,1.5,0.3,2.6,0.9,3.3s1.6,1.1,2.9,1.1c1.7,0,3-0.5,3.8-1.6s1.2-2.8,1.2-5.2v-9.7h4.1v19.4
		H205.1z"/>
	<path class="st1" d="M221.7,301.6c-3,0-5.4-0.9-7.1-2.6c-1.7-1.8-2.6-4.2-2.6-7.3c0-3.2,0.8-5.7,2.4-7.5c1.6-1.8,3.8-2.7,6.5-2.7
		c2.6,0,4.6,0.8,6.1,2.3c1.5,1.6,2.2,3.7,2.2,6.4v2.2h-13c0.1,1.9,0.6,3.3,1.5,4.4c1,1,2.3,1.5,4.1,1.5c1.1,0,2.2-0.1,3.2-0.3
		s2.1-0.6,3.2-1.1v3.4c-1,0.5-2,0.8-3.1,1S223,301.6,221.7,301.6z M220.9,284.5c-1.3,0-2.4,0.4-3.2,1.2s-1.3,2-1.4,3.6h8.8
		c0-1.6-0.4-2.8-1.2-3.6S222.2,284.5,220.9,284.5z"/>
	<path class="st1" d="M237,301.2h-4.1v-27.4h4.1V301.2z"/>
	<path class="st1" d="M246.7,301.2h-4.1v-27.4h4.1V301.2z"/>
	<path class="st1" d="M260,301.6c-3,0-5.4-0.9-7.1-2.6c-1.7-1.8-2.6-4.2-2.6-7.3c0-3.2,0.8-5.7,2.4-7.5c1.6-1.8,3.8-2.7,6.5-2.7
		c2.6,0,4.6,0.8,6.1,2.3c1.5,1.6,2.2,3.7,2.2,6.4v2.2h-13c0.1,1.9,0.6,3.3,1.5,4.4c1,1,2.3,1.5,4.1,1.5c1.1,0,2.2-0.1,3.2-0.3
		s2.1-0.6,3.2-1.1v3.4c-1,0.5-2,0.8-3.1,1S261.3,301.6,260,301.6z M259.2,284.5c-1.3,0-2.4,0.4-3.2,1.2s-1.3,2-1.4,3.6h8.8
		c0-1.6-0.4-2.8-1.2-3.6S260.5,284.5,259.2,284.5z"/>
	<path class="st1" d="M281.7,281.4c0.8,0,1.5,0.1,2.1,0.2l-0.4,3.9c-0.6-0.1-1.2-0.2-1.8-0.2c-1.7,0-3,0.5-4,1.6
		c-1,1.1-1.5,2.5-1.5,4.2v10.2h-4.1v-19.4h3.2l0.5,3.4h0.2c0.6-1.2,1.5-2.1,2.5-2.8S280.5,281.4,281.7,281.4z"/>
</g>
<g class="st0">
	<path class="st1" d="M325.1,284.4c-1.2,1-3.1,1.8-5.4,2.3l-0.7,0.2c1.1,0.5,1.9,1.2,2.5,2.3s0.9,2.3,0.9,3.7c0,1.7-0.5,3.2-1.6,4.5
		s-2.5,2.4-4.4,3.2s-4,1.1-6.5,1.1c-2.6,0-5-0.4-7-1.1s-3.6-1.8-4.7-3.1s-1.6-2.9-1.6-4.8c0-1.6,0.4-3,1.3-4.1s1.8-2,2.9-2.5
		c1.1-0.6,2.1-1,3.1-1.2c-2.7-1.1-4.1-2.6-4.1-4.5c0-1,0.3-1.8,1-2.5c0.7-0.7,1.6-1.2,2.7-1.6c1.1-0.4,2.3-0.5,3.5-0.5
		c0.9,0,1.6,0.1,2.2,0.2s1.1,0.3,1.5,0.6c1.5,0.7,2.2,1.7,2.2,2.9c0,0.5-0.1,0.9-0.4,1.2c-0.3,0.4-0.6,0.6-1,0.8s-0.9,0.3-1.4,0.3
		c-0.8,0-1.4-0.2-1.9-0.6s-0.7-0.9-0.7-1.7c0-0.6,0.2-1.2,0.6-1.6s1-0.8,1.7-0.9c-0.2-0.2-0.5-0.3-1-0.5s-0.9-0.2-1.4-0.2
		c-0.8,0-1.6,0.2-2.3,0.5s-1.2,0.9-1.6,1.6s-0.6,1.6-0.6,2.6c0,1.4,0.5,2.6,1.4,3.7c0.9-0.2,1.6-0.3,2-0.3c0.4,0,0.8,0.1,1,0.3
		s0.4,0.4,0.4,0.7c0,0.2-0.1,0.4-0.3,0.5s-0.4,0.2-0.7,0.2c-0.3,0-0.6-0.1-1-0.2s-0.6-0.3-0.9-0.4s-0.4-0.2-0.4-0.3
		c-1.2,0.6-2.2,1.4-2.8,2.3c-0.7,0.9-1,2.1-1,3.5c0,2.3,0.9,4.1,2.8,5.2c1.9,1.2,4.4,1.8,7.7,1.8c1.7,0,3.3-0.2,4.8-0.7
		s2.8-1.2,3.7-2.2c0.9-0.9,1.4-2.1,1.4-3.4c0-2.2-0.9-3.7-2.7-4.6c-0.7,0.2-1.5,0.4-2.4,0.7s-1.5,0.4-1.9,0.6
		c-1.3,0.3-2.4,0.6-3.3,0.9s-1.5,0.7-1.9,1.1s-0.7,0.9-0.7,1.5c0,0.6,0.2,1.1,0.6,1.5s0.9,0.8,1.5,1c0.6,0.2,1.2,0.4,1.9,0.4
		c0.2,0,0.5,0,0.8-0.1c0.3-0.1,0.5-0.2,0.6-0.2c-0.6-0.2-1-0.5-1.3-0.9c-0.3-0.4-0.5-0.9-0.5-1.5c0-0.7,0.3-1.3,0.8-1.7
		c0.5-0.4,1.2-0.6,2.1-0.6c0.9,0,1.5,0.2,2,0.7s0.7,1,0.7,1.8c0,1.1-0.5,1.9-1.4,2.4c-1,0.6-2.2,0.8-3.7,0.8c-1,0-1.9-0.2-2.7-0.5
		c-0.8-0.3-1.5-0.9-1.9-1.5c-0.5-0.7-0.7-1.5-0.7-2.5c0-1.8,0.7-3.2,2.1-4.3s3.4-1.8,6-2.4c0.4-0.1,1.2-0.3,2.4-0.6s2.2-0.6,3-0.8
		c1.9-0.5,3.2-1,4.1-1.5c0.9-0.5,1.3-1.2,1.3-2.1c0-0.6-0.2-1.2-0.6-1.7c-0.4-0.5-0.9-0.9-1.5-1.2c-0.6-0.3-1.3-0.4-2-0.4
		c-0.5,0-0.8,0.1-1,0.2c0.6,0.2,1,0.5,1.3,0.9s0.5,0.9,0.5,1.3c0,0.7-0.3,1.3-0.8,1.7s-1.2,0.6-2.1,0.6c-0.8,0-1.5-0.2-2-0.6
		s-0.8-1-0.8-1.7c0-0.9,0.4-1.7,1.2-2.2s1.9-0.8,3.3-0.8c1.1,0,2.1,0.2,3,0.6c0.9,0.4,1.5,1,2,1.8s0.7,1.7,0.7,2.7
		C327,282.1,326.4,283.4,325.1,284.4z"/>
</g>
<g>
	<path class="st1" d="M359.6,301.2h-4.2v-11.6h-11.8v11.6h-4.2v-25.7h4.2V286h11.8v-10.5h4.2V301.2z"/>
	<path class="st1" d="M364.6,276.6c0-0.7,0.2-1.3,0.6-1.7s1-0.6,1.7-0.6c0.7,0,1.3,0.2,1.7,0.6s0.6,1,0.6,1.7c0,0.7-0.2,1.3-0.6,1.7
		s-1,0.6-1.7,0.6c-0.8,0-1.3-0.2-1.7-0.6S364.6,277.3,364.6,276.6z M369,301.2h-4.1v-19.4h4.1V301.2z"/>
	<path class="st1" d="M387.6,295.7c0,1.9-0.7,3.4-2.1,4.4s-3.4,1.5-5.9,1.5c-2.6,0-4.7-0.4-6.2-1.2v-3.6c2.3,1.1,4.4,1.6,6.4,1.6
		c2.5,0,3.8-0.8,3.8-2.3c0-0.5-0.1-0.9-0.4-1.2c-0.3-0.3-0.7-0.7-1.4-1s-1.5-0.8-2.7-1.2c-2.2-0.9-3.8-1.7-4.5-2.6s-1.2-2-1.2-3.4
		c0-1.7,0.7-3,2-3.9c1.3-0.9,3.2-1.4,5.5-1.4c2.3,0,4.4,0.5,6.5,1.4l-1.3,3.1c-2.1-0.9-3.9-1.3-5.3-1.3c-2.2,0-3.3,0.6-3.3,1.9
		c0,0.6,0.3,1.1,0.9,1.5c0.6,0.4,1.8,1,3.7,1.7c1.6,0.6,2.8,1.2,3.5,1.7s1.3,1.1,1.6,1.8C387.5,293.9,387.6,294.7,387.6,295.7z"/>
	<path class="st1" d="M405.3,301.2h-4.2v-25.7h14.5v3.6h-10.3v8h9.7v3.6h-9.7V301.2z"/>
	<path class="st1" d="M430.3,301.2l-0.8-2.7h-0.1c-0.9,1.2-1.9,2-2.8,2.4s-2.2,0.6-3.7,0.6c-1.9,0-3.4-0.5-4.5-1.5s-1.6-2.5-1.6-4.4
		c0-2,0.7-3.5,2.2-4.5s3.8-1.6,6.8-1.7l3.4-0.1v-1c0-1.2-0.3-2.2-0.9-2.8s-1.5-0.9-2.7-0.9c-1,0-2,0.1-2.9,0.4s-1.8,0.6-2.6,1
		l-1.3-3c1.1-0.6,2.2-1,3.5-1.3c1.3-0.3,2.4-0.4,3.6-0.4c2.5,0,4.3,0.5,5.6,1.6c1.3,1.1,1.9,2.8,1.9,5.1v13.1H430.3z M424.1,298.4
		c1.5,0,2.7-0.4,3.6-1.3s1.4-2,1.4-3.5v-1.7l-2.5,0.1c-1.9,0.1-3.4,0.4-4.2,1c-0.9,0.6-1.3,1.5-1.3,2.7c0,0.9,0.3,1.5,0.8,2
		C422.3,298.2,423.1,298.4,424.1,298.4z"/>
	<path class="st1" d="M454.3,301.2h-4.1v-12c0-1.5-0.3-2.6-0.8-3.3s-1.4-1.1-2.6-1.1c-1.6,0-2.8,0.5-3.5,1.6c-0.7,1-1.1,2.8-1.1,5.2
		v9.7h-4.1v-19.4h3.2l0.6,2.5h0.2c0.5-0.9,1.3-1.6,2.3-2.1s2.2-0.8,3.4-0.8c3,0,5,1,5.9,3.1h0.3c0.6-1,1.4-1.7,2.4-2.3
		s2.2-0.8,3.6-0.8c2.3,0,4,0.6,5.1,1.8c1.1,1.2,1.6,3,1.6,5.4v12.7h-4.1v-12c0-1.5-0.3-2.6-0.9-3.3s-1.5-1.1-2.6-1.1
		c-1.6,0-2.8,0.5-3.5,1.5s-1.1,2.5-1.1,4.6V301.2z"/>
	<path class="st1" d="M471,276.6c0-0.7,0.2-1.3,0.6-1.7s1-0.6,1.7-0.6c0.7,0,1.3,0.2,1.7,0.6s0.6,1,0.6,1.7c0,0.7-0.2,1.3-0.6,1.7
		s-1,0.6-1.7,0.6c-0.8,0-1.3-0.2-1.7-0.6S471,277.3,471,276.6z M475.4,301.2h-4.1v-19.4h4.1V301.2z"/>
	<path class="st1" d="M485,301.2h-4.1v-27.4h4.1V301.2z"/>
	<path class="st1" d="M488.4,281.8h4.5l4,11c0.6,1.6,1,3,1.2,4.4h0.1c0.1-0.6,0.3-1.4,0.6-2.3c0.3-0.9,1.8-5.3,4.5-13.1h4.5l-8.3,22
		c-1.5,4-4,6.1-7.6,6.1c-0.9,0-1.8-0.1-2.7-0.3v-3.3c0.6,0.1,1.3,0.2,2.1,0.2c2,0,3.4-1.2,4.2-3.5l0.7-1.8L488.4,281.8z"/>
</g>
</svg>
