<svg id="Layer_1" data-name="Layer 1" xmlns="http://www.w3.org/2000/svg" width="251.09" height="55.33" viewBox="0 0 251.09 55.33"><defs><style>.cls-1{fill:#034ea2;}</style></defs><title>ChrisMueller_logo</title><path class="cls-1" d="M20.24,42.57Q13,43.32,8.9,41.86t-4.55-5Q3.88,33.52,7.12,31t9.22-3.34a37.45,37.45,0,0,1,5.54-.37,36.34,36.34,0,0,1,5.46.46,24.44,24.44,0,0,1,4.73-4.36,10.71,10.71,0,0,1,4.44-1.87,5.12,5.12,0,0,1,3.82.77,4.5,4.5,0,0,1,1.83,3.21,8.25,8.25,0,0,1-1,4.92A17.35,17.35,0,0,1,37,35.51l0.06,0.41a8.51,8.51,0,0,1-1.68,6.43,17.58,17.58,0,0,1-6.82,5.16l-0.26-.13L28.11,47l0.16-.27a17.5,17.5,0,0,0,6.14-4.78A7.25,7.25,0,0,0,36,36.42v-0.1a31.55,31.55,0,0,1-5.35,3.21,40.29,40.29,0,0,1-6.4,2.38,19.93,19.93,0,0,0-.21,3,23.93,23.93,0,0,0,.24,3.26,10.36,10.36,0,0,0,3.59,7,9.33,9.33,0,0,0,7.39,1.69,12.75,12.75,0,0,0,7.51-4.18q3.41-3.6,7.12-11.35a3.35,3.35,0,0,1,.17.37,1.3,1.3,0,0,1,.09.28,4.71,4.71,0,0,1-.62,2.31,44.44,44.44,0,0,1-2.51,4.42,24.62,24.62,0,0,1-5.79,6.7,14.47,14.47,0,0,1-6.79,2.79A12.35,12.35,0,0,1,25,56.13a11.85,11.85,0,0,1-4.69-8.28,18.55,18.55,0,0,1-.18-2.57,25.71,25.71,0,0,1,.15-2.71m4.22-1.85a29.41,29.41,0,0,0,6.17-2.53,24.44,24.44,0,0,0,5-3.7,7.87,7.87,0,0,0-2.45-3.35,11.82,11.82,0,0,0-4.36-2.08,40.48,40.48,0,0,0-2.56,5.5,47.13,47.13,0,0,0-1.85,6.16M29.4,28.13a14.2,14.2,0,0,1,4.42,2.12,8.59,8.59,0,0,1,2.62,3.18,16.73,16.73,0,0,0,2.64-4.29,7.31,7.31,0,0,0,.66-3.72,3.16,3.16,0,0,0-1.17-2.18,3.07,3.07,0,0,0-2.39-.54,7.23,7.23,0,0,0-3.46,1.65,16.33,16.33,0,0,0-3.33,3.77m-9,13.31a28.26,28.26,0,0,1,2.25-6.63,31.18,31.18,0,0,1,3.92-6.13,26.62,26.62,0,0,0-4.33-.37,32.77,32.77,0,0,0-4.79.34,15.49,15.49,0,0,0-7.75,3A5.53,5.53,0,0,0,7.3,36.83q0.42,3,3.82,4.19t9.26,0.42" transform="translate(-4.29 -12.48)"/><path class="cls-1" d="M55.33,42.86l-1,6.29a86.9,86.9,0,0,1,6.29-14.46q3-5.17,5.39-5.5a2.17,2.17,0,0,1,1.87.51,3.43,3.43,0,0,1,.92,2.1,6.3,6.3,0,0,1,0,1.09q-0.06.8-.23,2.24L66.93,48.19a84,84,0,0,1,6.41-14.65q3.24-5.52,5.47-5.83a2.13,2.13,0,0,1,1.72.49,2.59,2.59,0,0,1,.91,1.71q0.18,1.27-1.27,8.09l-0.22,1.1q-1.26,6-1.54,8.42a16.27,16.27,0,0,0-.07,4,3.92,3.92,0,0,0,.87,2.14,1.74,1.74,0,0,0,1.61.6q1.35-.19,3.3-3.06a67.27,67.27,0,0,0,4.68-8.71,1.42,1.42,0,0,1,.2.31,1.16,1.16,0,0,1,.1.34q0.1,0.72-1.25,3.33l-0.13.25a38.87,38.87,0,0,1-4.14,6.7,5.39,5.39,0,0,1-3.18,2.05,3.54,3.54,0,0,1-3-.9,5.26,5.26,0,0,1-1.56-3.28,18.88,18.88,0,0,1,.07-4.58q0.32-2.8,1.59-8.87,0.23-1.08.64-2.91a21.09,21.09,0,0,0,.71-4.6,1.2,1.2,0,0,0-.31-0.71,0.67,0.67,0,0,0-.59-0.19q-1.29.18-3.84,4.48A73.75,73.75,0,0,0,69,44.81a70.49,70.49,0,0,0-2.75,9.14q-0.1.47-.15,0.69t-0.14.63A1.6,1.6,0,0,1,65,56.71L63.55,57l-0.18,0a0.75,0.75,0,0,1-.4,0,0.29,0.29,0,0,1-.14-0.24,1.31,1.31,0,0,1,0-.24c0-.08,0-0.21,0-0.41l2.87-19.8q0.33-2.28.39-3.21a7.72,7.72,0,0,0,0-1.5A1,1,0,0,0,65.76,31,0.92,0.92,0,0,0,65,30.86q-1.11.16-3.18,3.39a56.88,56.88,0,0,0-4.24,8.35q-1.39,3.37-2.4,6.64a60.52,60.52,0,0,0-1.62,6.38q-0.07.39-.17,1-0.2,1.53-1,1.71l-1.5.38-0.16,0a0.57,0.57,0,0,1-.37,0,0.34,0.34,0,0,1-.15-0.26,2.52,2.52,0,0,1,.05-0.65,0.62,0.62,0,0,1,0-.13l3-19.17a18.93,18.93,0,0,0,.18-1.92A8.93,8.93,0,0,0,53.36,35a4.78,4.78,0,0,0-1.84-3.38,5.09,5.09,0,0,0-3.84-.78A7.15,7.15,0,0,0,43,33.26a5.54,5.54,0,0,0-1.33,4.56,4.18,4.18,0,0,0,1.5,2.81,3.75,3.75,0,0,0,3,.75,5.83,5.83,0,0,0,1.11-.28,7.68,7.68,0,0,0,1.23-.57l0.24,0.07,0.16,0.23L48.84,41a8.26,8.26,0,0,1-1.64.84,8.05,8.05,0,0,1-1.77.46,5.33,5.33,0,0,1-3.84-.68,4.26,4.26,0,0,1-1.78-3.1A5.72,5.72,0,0,1,40,36a7.18,7.18,0,0,1,1.39-2.44,10.6,10.6,0,0,1,2.85-2.31,9.71,9.71,0,0,1,3.39-1.16,7.66,7.66,0,0,1,5.46,1.11,5.9,5.9,0,0,1,2.73,4.27,27.89,27.89,0,0,1-.49,7.17Z" transform="translate(-4.29 -12.48)"/><path class="cls-1" d="M38.74,58.23l-0.52.22L50.64,67.8,62.26,52.38l0.15-1L50.54,67.12Z" transform="translate(-4.29 -12.48)"/><path class="cls-1" d="M36.92,20.36l0.63,0L43,13.16,63.83,28.89a4.71,4.71,0,0,1,.44-0.28L42.86,12.48Z" transform="translate(-4.29 -12.48)"/><path class="cls-1" d="M69.91,32.86l0,0.15c0,0.14,0,.29,0,0.42l1.58,1.19,0.24-.43Z" transform="translate(-4.29 -12.48)"/><path class="cls-1" d="M74.17,36.07q-0.44.81-.86,1.65l1.11-1.47Z" transform="translate(-4.29 -12.48)"/><path class="cls-1" d="M25.35,48.14c0,0.24.07,0.47,0.11,0.69l9.32,7,0.67-.11Z" transform="translate(-4.29 -12.48)"/><path class="cls-1" d="M31.44,27.63l0.46,0.2,2.43-3.23a8.21,8.21,0,0,0-.88.63l-0.61.53Z" transform="translate(-4.29 -12.48)"/><path class="cls-1" d="M29.84,30.57l-0.41-.15c-0.36.68-.69,1.35-1,2Z" transform="translate(-4.29 -12.48)"/><path class="cls-1" d="M42.17,56.13l-0.33.25h0A17.47,17.47,0,0,1,40,57.57L50.28,65.3,62.79,48.7l0.73-5L54.84,55.19l-0.13.64-0.16,1a4.32,4.32,0,0,1-.39,1.39,2.16,2.16,0,0,1-1.5,1.27l-1.28.32L49.8,61.88Z" transform="translate(-4.29 -12.48)"/><path class="cls-1" d="M39,20.52a5.63,5.63,0,0,1,2.24,1.09l2.42-3.21L61.22,31.61c0.24-.33.5-0.65,0.77-1a10,10,0,0,1,.81-0.88L43.21,15Z" transform="translate(-4.29 -12.48)"/><path class="cls-1" d="M69.7,34.94l0,0.33-0.49,4c0.55-1.25,1.08-2.38,1.65-3.5Z" transform="translate(-4.29 -12.48)"/><path class="cls-1" d="M64.85,34.35A14.92,14.92,0,0,0,65,32.13a7.82,7.82,0,0,0-1.25,1.38Z" transform="translate(-4.29 -12.48)"/><path class="cls-1" d="M30.87,47.61c-0.7.4-1.42,0.75-2.3,1.16l-0.64-.33L37,55.3a11.25,11.25,0,0,0,1.89-.92l0.51-.33Z" transform="translate(-4.29 -12.48)"/><path class="cls-1" d="M27.38,48l-0.56-1.13,0.64-1.09,0.61-.32-2.9-2.18a19.48,19.48,0,0,0,0,3Z" transform="translate(-4.29 -12.48)"/><path class="cls-1" d="M25.33,42.77l-0.11,0v0.13Z" transform="translate(-4.29 -12.48)"/><path class="cls-1" d="M33.08,28.43a15.4,15.4,0,0,1,1.4.89c0.22,0.16.43,0.32,0.62,0.49l3.45-4.57a2,2,0,0,0-.66-1.08,1.85,1.85,0,0,0-1.32-.36Z" transform="translate(-4.29 -12.48)"/><path class="cls-1" d="M33.06,32.51a8,8,0,0,0-2-1.41l-4.4,5.84c-0.21.67-.42,1.35-0.61,2.07a28,28,0,0,0,3.12-1.34Z" transform="translate(-4.29 -12.48)"/><path class="cls-1" d="M110.36,33.09a0.21,0.21,0,0,1,.24.25c0,0.25-.31,2.33-0.31,2.77a0.36,0.36,0,0,1-.31.38,19.88,19.88,0,0,1-6.06.8c-5.93,0-8.16-4.49-8.16-7.31a8,8,0,0,1,8.16-8.15,13.52,13.52,0,0,1,5,.8,8.46,8.46,0,0,0,.86-0.36s0.15,0,.15.25a26.11,26.11,0,0,0,.42,3.36,0.39,0.39,0,0,1-.42.27,0.23,0.23,0,0,1-.24-0.17c-0.95-2.31-2.34-3.61-5.18-3.61s-6.11,2.48-6.11,7.52a6.49,6.49,0,0,0,6.5,6.84A5.71,5.71,0,0,0,110,33.26,0.32,0.32,0,0,1,110.36,33.09Z" transform="translate(-4.29 -12.48)"/><path class="cls-1" d="M114.88,28.81a6.1,6.1,0,0,1,3.46-1.26c0.75,0,2.91.15,2.91,3.15v5c0,0.36.07,0.76,1.43,0.76,0.22,0,.22.13,0.22,0.27s0,0.27-.31.27c-0.66,0-1.06,0-2.23,0-1.79,0-2.14,0-2.32,0a0.2,0.2,0,0,1-.15-0.25,0.28,0.28,0,0,1,.31-0.29c1.06,0,1.26-.08,1.26-0.78V32c0-2-.18-3.25-2.47-3.25-0.95,0-2,.42-2.12.78V35c0,1.2,0,1.45,1,1.45,0.6,0,.64,0,0.64.27s0,0.27-.22.27-0.4,0-1.94,0c-2.07,0-2.65,0-2.87,0s-0.18-.13-0.18-0.23c0-.27,0-0.31.84-0.31A0.77,0.77,0,0,0,113,36c0.09-.19.13-3,0.13-3.86V24.78c0-1.83-.07-2.08-1.28-2.18a0.22,0.22,0,0,1-.2-0.25,0.26,0.26,0,0,1,.18-0.29,18.34,18.34,0,0,0,3.06-.9,0.19,0.19,0,0,1,.13.23,18.24,18.24,0,0,0-.11,3v4.41Z" transform="translate(-4.29 -12.48)"/><path class="cls-1" d="M125,30.09c0-.73-0.2-1.15-1.3-1.26a0.2,0.2,0,0,1-.2-0.25,0.26,0.26,0,0,1,.18-0.29,10.16,10.16,0,0,0,3.09-1,0.24,0.24,0,0,1,.09.21c0,0.25-.11.78-0.11,1.91,0.73-.78,1.92-1.83,3.09-1.83a1.23,1.23,0,0,1,1.41,1.18,1.06,1.06,0,0,1-1.08,1c-0.9,0-1-.8-1.7-0.8a2.5,2.5,0,0,0-1.52.9,0.85,0.85,0,0,0-.16.61v4.77c0,0.78,0,1.24,1.1,1.24,0.82,0,.9,0,0.9.25s-0.09.29-.33,0.29c-0.79,0-1.5,0-2.51,0-1.76,0-2.14,0-2.56,0a0.22,0.22,0,0,1-.2-0.27c0-.21.26-0.27,0.68-0.27,0.95,0,1.13-.17,1.13-1.07V30.09Z" transform="translate(-4.29 -12.48)"/><path class="cls-1" d="M135.39,35c0,1.2,0,1.45,1,1.45,0.49,0,.53,0,0.53.27s0,0.27-.22.27-0.4,0-1.83,0c-2.07,0-2.65,0-3,0-0.18,0-.18-0.13-0.18-0.23,0-.27,0-0.31.84-0.31a0.83,0.83,0,0,0,.9-0.5,20.29,20.29,0,0,0,.13-3V30.09c0-.73-0.2-1.15-1.3-1.26a0.2,0.2,0,0,1-.2-0.25,0.26,0.26,0,0,1,.18-0.29,10.16,10.16,0,0,0,3.09-1,0.19,0.19,0,0,1,.13.23,18.08,18.08,0,0,0-.11,3V35Zm-2-11.82a1.15,1.15,0,1,1,1.15,1.11A1.14,1.14,0,0,1,133.34,23.23Z" transform="translate(-4.29 -12.48)"/><path class="cls-1" d="M144,34.44c0,1-.57,2.86-3.59,2.86-0.4,0-1.68-.17-2.54-0.17a0.14,0.14,0,0,1-.11-0.1c0-.21-0.51-2.06-0.51-2.27s0.31-.13.4-0.13c0.53,0,.66,2.12,2.78,2.12a1.83,1.83,0,0,0,2-1.87c0-2.2-4.94-1.49-4.94-4.47,0-1.72,1.5-2.86,3.35-2.86a18.52,18.52,0,0,1,2.38.19,0.59,0.59,0,0,1,.33.59c0,0.86.24,1.41,0.24,1.68a0.2,0.2,0,0,1-.24.17,0.39,0.39,0,0,1-.44-0.29,2.56,2.56,0,0,0-2.29-1.78,1.56,1.56,0,0,0-1.76,1.57,1.6,1.6,0,0,0,1,1.41C142.44,32.13,144,32.07,144,34.44Z" transform="translate(-4.29 -12.48)"/><path class="cls-1" d="M165.93,22.26a0.27,0.27,0,0,1,.26-0.23c0.11,0,1.72.08,2.23,0.08s2.25-.08,2.4-0.08,0.24,0.17.24,0.36a0.24,0.24,0,0,1-.26.27c-2,0-2.23.15-2.23,1.11,0,1.36.24,5.77,0.46,11.65a1.07,1.07,0,0,0,1.21,1c1.24,0,1.26.13,1.26,0.27,0,0.31-.11.36-0.24,0.36s-0.44,0-3.51,0c-2.87,0-3,0-3.17,0s-0.24-.15-0.24-0.34,0-.29,1.06-0.29c1.46,0,1.48-.34,1.48-1.18,0-1.26-.33-8-0.51-12h0c-1.61,3.93-3.64,8.44-5.09,11.82-0.84,1.93-.84,2.16-1.12,2.16s-0.33-.19-0.79-1.64-4.08-10.79-4.17-10.79c-0.37,1.53-1.83,8.5-1.83,10.6a0.93,0.93,0,0,0,1.1,1,2.17,2.17,0,0,1,1.19.17c0,0.4,0,.46-0.24.46s-0.4,0-2.67,0c-2,0-2.16,0-2.29,0s-0.24,0-.24-0.36,0.11-.27,1.17-0.27c0.77,0,.93-0.27,1.17-1.47,0.59-3,1.12-6.07,1.81-9.09a8.76,8.76,0,0,0,.29-2,2.17,2.17,0,0,0-.57-1,7.82,7.82,0,0,0-1.9-.17c-0.26,0-.26-0.17-0.26-0.31A0.25,0.25,0,0,1,152.1,22c0.42,0,2.32.08,2.56,0.08,0.57,0,1.5-.08,1.79-0.08s0.31,0.23.53,1c0.46,1.57,3.66,10.08,4.06,10.85C162.68,30.16,164.36,26.31,165.93,22.26Z" transform="translate(-4.29 -12.48)"/><path class="cls-1" d="M172.43,30.49c0-1.85-.22-2-1.37-2-0.18,0-.49,0-0.49-0.21s0-.42.24-0.42,0.57,0.06,1.3.06,1.61-.06,1.92-0.06c0.13,0,.18,0,0.18.29v5.67c0,1.57.53,2.48,2.16,2.48,0.79,0,2.18-.46,2.18-1.11V29.78c0-1.13-.22-1.26-1.37-1.26-0.4,0-.71,0-0.71-0.21s0-.42.15-0.42c0.31,0,.57.06,1.92,0.06,0.55,0,1.13-.06,1.68-0.06a0.26,0.26,0,0,1,.31.29c0,0.08-.2,1.7-0.2,3.19v3.95c0,0.34,0,.78.55,0.78,0.31,0,.79-0.08.95-0.08s0.13,0,.13.4c0,0.13,0,.17-0.73.27a21,21,0,0,0-2.54.55,0.28,0.28,0,0,1-.26-0.29c0-.25,0-0.59.07-0.8a6.31,6.31,0,0,1-3.29,1.15c-2.18,0-2.8-1.34-2.8-3.53V30.49Z" transform="translate(-4.29 -12.48)"/><path class="cls-1" d="M183.72,31.33a7.26,7.26,0,0,0-.09,1.2A3.62,3.62,0,0,0,187.25,36a2.92,2.92,0,0,0,2.58-1.26,0.79,0.79,0,0,1,.33-0.36,0.46,0.46,0,0,1,.35.25,4,4,0,0,1-3.79,2.67c-3.15,0-4.81-1.85-4.81-4.79s2.14-5,4.41-5a3.59,3.59,0,0,1,3.95,3.63c0,0.21-.09.23-0.26,0.23h-6.28Zm3.79-.63a0.62,0.62,0,0,0,.75-0.69,1.82,1.82,0,0,0-1.94-2c-1.59,0-2.25,1.26-2.47,2.69h3.66Z" transform="translate(-4.29 -12.48)"/><path class="cls-1" d="M194.26,35c0,1.2,0,1.45,1,1.45,0.6,0,.64,0,0.64.27s0,0.27-.22.27-0.4,0-1.94,0c-2.07,0-2.65,0-2.87,0s-0.18-.13-0.18-0.23c0-.27,0-0.31.84-0.31a0.77,0.77,0,0,0,.79-0.5c0.09-.19.13-3,0.13-3.86V24.78c0-1.83-.07-2.08-1.28-2.18a0.22,0.22,0,0,1-.2-0.25,0.26,0.26,0,0,1,.18-0.29,18.34,18.34,0,0,0,3.06-.9,0.19,0.19,0,0,1,.13.23,18.08,18.08,0,0,0-.11,3V35Z" transform="translate(-4.29 -12.48)"/><path class="cls-1" d="M200.39,35c0,1.2,0,1.45,1,1.45,0.6,0,.64,0,0.64.27s0,0.27-.22.27-0.4,0-1.94,0c-2.07,0-2.65,0-2.87,0s-0.18-.13-0.18-0.23c0-.27,0-0.31.84-0.31a0.77,0.77,0,0,0,.79-0.5c0.09-.19.13-3,0.13-3.86V24.78c0-1.83-.07-2.08-1.28-2.18a0.22,0.22,0,0,1-.2-0.25,0.26,0.26,0,0,1,.18-0.29,18.34,18.34,0,0,0,3.06-.9,0.19,0.19,0,0,1,.13.23,18.08,18.08,0,0,0-.11,3V35Z" transform="translate(-4.29 -12.48)"/><path class="cls-1" d="M204.43,31.33a7.26,7.26,0,0,0-.09,1.2A3.62,3.62,0,0,0,208,36a2.92,2.92,0,0,0,2.58-1.26,0.79,0.79,0,0,1,.33-0.36,0.46,0.46,0,0,1,.35.25,4,4,0,0,1-3.79,2.67c-3.15,0-4.81-1.85-4.81-4.79s2.14-5,4.41-5A3.59,3.59,0,0,1,211,31.1c0,0.21-.09.23-0.26,0.23h-6.28Zm3.79-.63A0.62,0.62,0,0,0,209,30,1.82,1.82,0,0,0,207,28c-1.59,0-2.25,1.26-2.47,2.69h3.66Z" transform="translate(-4.29 -12.48)"/><path class="cls-1" d="M213.62,30.09c0-.73-0.2-1.15-1.3-1.26a0.2,0.2,0,0,1-.2-0.25,0.26,0.26,0,0,1,.18-0.29,10.16,10.16,0,0,0,3.09-1,0.24,0.24,0,0,1,.09.21c0,0.25-.11.78-0.11,1.91,0.73-.78,1.92-1.83,3.09-1.83a1.23,1.23,0,0,1,1.41,1.18,1.06,1.06,0,0,1-1.08,1c-0.9,0-1-.8-1.7-0.8a2.5,2.5,0,0,0-1.52.9,0.85,0.85,0,0,0-.16.61v4.77c0,0.78,0,1.24,1.1,1.24,0.82,0,.9,0,0.9.25s-0.09.29-.33,0.29c-0.79,0-1.5,0-2.51,0-1.76,0-2.14,0-2.56,0a0.22,0.22,0,0,1-.2-0.27c0-.21.26-0.27,0.68-0.27,0.95,0,1.13-.17,1.13-1.07V30.09Z" transform="translate(-4.29 -12.48)"/><path class="cls-1" d="M220,35a1.59,1.59,0,0,1,1.53,1.8,3.71,3.71,0,0,1-1.23,2.79,2.62,2.62,0,0,1-1.27.72,0.21,0.21,0,0,1-.19-0.23,5.14,5.14,0,0,1,.81-0.72,2.81,2.81,0,0,0,.85-1.76c0-.14,0-0.58-0.23-0.58s-0.25.09-.47,0.09a0.94,0.94,0,0,1-.95-1.06A1.12,1.12,0,0,1,220,35Z" transform="translate(-4.29 -12.48)"/><path class="cls-1" d="M227.87,30.35c0-1,0-1.33,0-2,0-.83-0.26-0.94-1.32-0.94-0.16,0-.16-0.11-0.16-0.24a0.15,0.15,0,0,1,.13-0.18c0.12,0,1.4.06,2.32,0.06,0.76,0,1.43-.06,1.87-0.06,2.23,0,3.34.14,4.58,0.94a4.63,4.63,0,0,1,2,3.84,4.94,4.94,0,0,1-1.59,3.77A6.39,6.39,0,0,1,231.5,37c-0.38,0-.94,0-2.69,0-2.16,0-2.22,0-2.32,0s-0.12-.06-0.12-0.18,0-.24.41-0.24c0.69,0,1-.24,1-0.62,0-.7,0-1.61,0-2.21V30.35Zm1.46,5.6c0,0.49.44,0.66,1.38,0.66a4.47,4.47,0,0,0,4.76-4.72A4.37,4.37,0,0,0,233.54,28a5.26,5.26,0,0,0-2.76-.62c-1.46,0-1.46.08-1.46,1.05v7.47Z" transform="translate(-4.29 -12.48)"/><path class="cls-1" d="M238.64,30.35c0-1,0-1.33,0-2,0-.83-0.26-0.94-1.32-0.94-0.16,0-.16-0.11-0.16-0.24a0.15,0.15,0,0,1,.13-0.18c0.12,0,1.4.06,2.32,0.06,0.76,0,1.43-.06,1.87-0.06,2.23,0,3.34.14,4.58,0.94a4.63,4.63,0,0,1,2,3.84,4.94,4.94,0,0,1-1.59,3.77A6.4,6.4,0,0,1,242.27,37c-0.38,0-.94,0-2.69,0-2.16,0-2.22,0-2.32,0s-0.12-.06-0.12-0.18,0-.24.41-0.24c0.69,0,1-.24,1-0.62,0-.7,0-1.61,0-2.21V30.35Zm1.46,5.6c0,0.49.44,0.66,1.38,0.66a4.47,4.47,0,0,0,4.76-4.72A4.37,4.37,0,0,0,244.31,28a5.26,5.26,0,0,0-2.76-.62c-1.46,0-1.46.08-1.46,1.05v7.47Z" transform="translate(-4.29 -12.48)"/><path class="cls-1" d="M253.91,34.9c0-1.05-.59-1.51-2.65-2.55C250,31.73,249,31.2,249,29.73s1-2.84,3.2-2.84a14,14,0,0,1,2,.25,3.11,3.11,0,0,0,.4-0.25,0.15,0.15,0,0,1,.13.18,16.51,16.51,0,0,0,.22,2.28,0.15,0.15,0,0,1-.15.14c-0.16,0-.22,0-0.25-0.08-0.41-1.09-1-2.16-2.41-2.16A1.82,1.82,0,0,0,250.23,29a1.89,1.89,0,0,0,1.15,1.68c1.69,1,3.94,1.47,3.94,3.57s-1.56,2.91-3.56,2.91a19.07,19.07,0,0,1-2.59-.2c-0.1,0-.12,0-0.13-0.17-0.1-1.5-.21-2.06-0.21-2.13s0.12-.14.29-0.14,0.13,0,.16.18a2.6,2.6,0,0,0,2.59,2.09A1.84,1.84,0,0,0,253.91,34.9Z" transform="translate(-4.29 -12.48)"/><path class="cls-1" d="M98.4,58.6c-2.78,0-2.85,0-3,0s-0.15-.07-0.15-0.23,0-.31.4-0.31c1.49,0,1.61-.31,1.63-0.79,0-.9.06-2.07,0.06-2.84V50c0-1.28,0-1.71,0-2.54,0-1.06-.34-1.21-1.85-1.21-0.21,0-.21-0.14-0.21-0.31a0.2,0.2,0,0,1,.17-0.23c0.15,0,1.8.07,3,.07,2.21,0,5-.07,6.35-0.07a0.76,0.76,0,0,1,.72.14c0.49,1.66.83,2.43,0.83,2.54s-0.11.13-.28,0.13-0.45-.52-2.12-1.85a2.06,2.06,0,0,0-1.3-.41c-0.49,0-2.12.07-2.84,0.11-0.43,0-.55.38-0.55,1.39v4.14h1.27c2,0,2.19-.79,2.23-1,0.23-1.33.28-1.33,0.42-1.33s0.36,0,.36.13v2.7c0,1.08.09,1.69,0.09,2.14,0,0.13-.13.14-0.25,0.14s-0.26-.07-0.28-0.2c-0.28-1.94-.62-2.05-2.46-2.05H99.21v4.65a0.77,0.77,0,0,0,.93.94h4.5c0.72,0,1.81-1.73,2.21-2.21a0.31,0.31,0,0,1,.25-0.11c0.19,0,.3,0,0.3.13a14.06,14.06,0,0,1-1.19,2.74H98.4Z" transform="translate(-4.29 -12.48)"/><path class="cls-1" d="M113.35,51.74c0-.47-0.68-0.47-0.81-0.47a0.21,0.21,0,0,1-.17-0.23,0.2,0.2,0,0,1,.19-0.23c0.45,0,.93,0,1.59,0,0.83,0,1.1,0,1.3,0a0.26,0.26,0,0,1,.17.23,0.27,0.27,0,0,1-.23.23c-1,.2-1.1.27-3,2.93a0.52,0.52,0,0,0-.06.23c0,0.07.36,0.59,2,3.21a1.52,1.52,0,0,0,1.32.52c0.13,0,.15.2,0.15,0.27s-0.08.2-.21,0.2c-0.66,0-1.34,0-2,0s-1.19,0-1.78,0c-0.19,0-.25-0.05-0.25-0.23a0.2,0.2,0,0,1,.21-0.23c0.17,0,.68-0.05.68-0.38s-0.21-.67-1.29-2.39c-1.23,1.44-1.7,2.05-1.7,2.43a0.89,0.89,0,0,0,.83.34c0.23,0,.28.07,0.28,0.27a0.18,0.18,0,0,1-.19.2c-0.55,0-1.1,0-1.64,0s-1,0-1.4,0c-0.09,0-.11-0.14-0.11-0.23s0.11-.23.32-0.23a1.54,1.54,0,0,0,.87-0.32c0.15-.14.81-1,2.16-2.49a0.57,0.57,0,0,0,.25-0.41,0.83,0.83,0,0,0-.11-0.25c-1.66-2.84-1.93-3-2-3.12a1.23,1.23,0,0,0-1-.31c-0.17,0-.19-0.11-0.19-0.27a0.21,0.21,0,0,1,.26-0.2c0.59,0,1.19,0,1.78,0s1.13,0,1.7,0a0.22,0.22,0,0,1,.17.27,0.17,0.17,0,0,1-.19.2c-0.53.14-.57,0.18-0.57,0.34S110.74,52,112,53.88A7.75,7.75,0,0,0,113.35,51.74Z" transform="translate(-4.29 -12.48)"/><path class="cls-1" d="M123.44,61.84c0,0.86,0,1,1.25,1,0.09,0,.09.09,0.09,0.22a0.23,0.23,0,0,1-.28.25c-0.42,0-1.12-.05-2.44-0.05s-1.51.05-1.68,0.05a0.29,0.29,0,0,1-.09-0.27c0-.14,0-0.2.08-0.2,1.53,0,1.55-.09,1.55-0.88V58.49a10.38,10.38,0,0,1-2.34.36,3.33,3.33,0,0,1-2.23-.58,4.33,4.33,0,0,1-1.59-3.49,4.07,4.07,0,0,1,4.18-4.29,16.25,16.25,0,0,1,2.7.38,2.16,2.16,0,0,0,.74-0.38c0.11,0,.17,0,0.17.25,0,0.72-.09,2.45-0.09,7.85v3.24Zm-1.53-8.75A2.22,2.22,0,0,0,119.7,51c-2.06,0-2.16,2.43-2.16,3.06,0,2,.47,4.23,3,4.23,0.3,0,1.32-.05,1.32-0.38V53.09Z" transform="translate(-4.29 -12.48)"/><path class="cls-1" d="M126.41,53c0-1.58-.19-1.69-1.17-1.69-0.15,0-.42,0-0.42-0.18s0-.36.21-0.36,0.49,0.05,1.12.05,1.38-.05,1.64-0.05c0.11,0,.15,0,0.15.25V55.9c0,1.35.45,2.13,1.85,2.13,0.68,0,1.87-.4,1.87-1V52.41c0-1-.19-1.08-1.17-1.08-0.34,0-.61,0-0.61-0.18s0-.36.13-0.36,0.49,0.05,1.64.05c0.47,0,1-.05,1.44-0.05a0.23,0.23,0,0,1,.26.25c0,0.07-.17,1.46-0.17,2.74v3.38c0,0.29,0,.67.47,0.67,0.26,0,.68-0.07.81-0.07s0.11,0,.11.34c0,0.11,0,.14-0.62.23a18.14,18.14,0,0,0-2.17.47,0.24,0.24,0,0,1-.23-0.25c0-.22,0-0.5.06-0.68a5.42,5.42,0,0,1-2.82,1c-1.87,0-2.4-1.15-2.4-3V53Z" transform="translate(-4.29 -12.48)"/><path class="cls-1" d="M138.26,56.92c0,1,0,1.24.87,1.24,0.42,0,.45,0,0.45.23s0,0.23-.19.23-0.34,0-1.57,0c-1.78,0-2.27,0-2.55,0s-0.15-.11-0.15-0.2,0-.27.72-0.27a0.71,0.71,0,0,0,.78-0.43,17.31,17.31,0,0,0,.11-2.59V52.68c0-.63-0.17-1-1.12-1.08a0.17,0.17,0,0,1-.17-0.22,0.22,0.22,0,0,1,.15-0.25,8.71,8.71,0,0,0,2.65-.88,0.16,0.16,0,0,1,.11.2,15.49,15.49,0,0,0-.09,2.59v3.89ZM136.5,46.79a1,1,0,1,1,1,1A1,1,0,0,1,136.5,46.79Z" transform="translate(-4.29 -12.48)"/><path class="cls-1" d="M146.42,56.4c0,0.88-.49,2.45-3.08,2.45-0.34,0-1.44-.14-2.17-0.14a0.12,0.12,0,0,1-.09-0.09c0-.18-0.43-1.76-0.43-1.94s0.26-.11.34-0.11c0.45,0,.57,1.82,2.38,1.82a1.57,1.57,0,0,0,1.72-1.6c0-1.89-4.23-1.28-4.23-3.83a2.61,2.61,0,0,1,2.87-2.45,16,16,0,0,1,2,.16,0.5,0.5,0,0,1,.28.5c0,0.74.21,1.21,0.21,1.44a0.18,0.18,0,0,1-.21.14,0.33,0.33,0,0,1-.38-0.25,2.19,2.19,0,0,0-2-1.53,1.34,1.34,0,0,0-1.51,1.35,1.37,1.37,0,0,0,.89,1.21C145.06,54.42,146.42,54.37,146.42,56.4Z" transform="translate(-4.29 -12.48)"/><path class="cls-1" d="M150.13,56.92c0,1,0,1.24.87,1.24,0.42,0,.45,0,0.45.23s0,0.23-.19.23-0.34,0-1.57,0c-1.78,0-2.27,0-2.55,0s-0.15-.11-0.15-0.2,0-.27.72-0.27a0.71,0.71,0,0,0,.78-0.43,17.31,17.31,0,0,0,.11-2.59V52.68c0-.63-0.17-1-1.12-1.08a0.17,0.17,0,0,1-.17-0.22,0.22,0.22,0,0,1,.15-0.25,8.71,8.71,0,0,0,2.65-.88,0.16,0.16,0,0,1,.11.2,15.49,15.49,0,0,0-.09,2.59v3.89Zm-1.76-10.14a1,1,0,1,1,1,1A1,1,0,0,1,148.37,46.79Z" transform="translate(-4.29 -12.48)"/><path class="cls-1" d="M154.12,55.43c0,1.91.17,2.59,1.66,2.59a3.22,3.22,0,0,0,1.29-.41,0.36,0.36,0,0,1,.21.29,2.93,2.93,0,0,1-2.51,1,2,2,0,0,1-2.17-2.23V51.88a0.19,0.19,0,0,0-.19-0.23h-0.95a0.14,0.14,0,0,1-.11-0.16,0.31,0.31,0,0,1,.11-0.25c1.76-1.26,2.12-2.21,2.5-2.21a0.22,0.22,0,0,1,.23.23c0,0.32-.06.63-0.06,1.66H157c0.13,0,.19.13,0.19,0.38a0.43,0.43,0,0,1-.51.45c-0.13,0-1-.09-2.59-0.09v3.78Z" transform="translate(-4.29 -12.48)"/><path class="cls-1" d="M159.12,53.74a6.15,6.15,0,0,0-.08,1,3.11,3.11,0,0,0,3.1,3,2.51,2.51,0,0,0,2.21-1.08,0.68,0.68,0,0,1,.28-0.31,0.39,0.39,0,0,1,.3.22,3.41,3.41,0,0,1-3.25,2.29,3.75,3.75,0,0,1-4.12-4.11,4.05,4.05,0,0,1,3.78-4.32,3.07,3.07,0,0,1,3.38,3.12c0,0.18-.08.2-0.23,0.2h-5.39Zm3.25-.54A0.53,0.53,0,0,0,163,52.6a1.56,1.56,0,0,0-1.66-1.71c-1.36,0-1.93,1.08-2.12,2.3h3.14Z" transform="translate(-4.29 -12.48)"/><path class="cls-1" d="M173,50c0-1.28,0-1.71,0-2.54,0-1.06-.34-1.21-1.7-1.21-0.21,0-.21-0.14-0.21-0.31a0.2,0.2,0,0,1,.17-0.23c0.15,0,1.8.07,3,.07,1,0,1.83-.07,2.4-0.07,2.87,0,4.29.18,5.9,1.21A6,6,0,0,1,185,51.9a6.35,6.35,0,0,1-2,4.84,8.24,8.24,0,0,1-5.31,1.89c-0.49,0-1.21,0-3.46,0-2.78,0-2.85,0-3,0s-0.15-.07-0.15-0.23,0-.31.53-0.31c0.89,0,1.32-.31,1.34-0.79,0-.9.06-2.07,0.06-2.84V50Zm1.87,7.2c0,0.63.57,0.85,1.78,0.85,3.4,0,6.22-2.23,6.13-6.07a5.62,5.62,0,0,0-2.48-4.93,6.76,6.76,0,0,0-3.55-.79c-1.87,0-1.87.11-1.87,1.35v9.6Z" transform="translate(-4.29 -12.48)"/><path class="cls-1" d="M187.38,53.74a6.15,6.15,0,0,0-.08,1,3.11,3.11,0,0,0,3.1,3,2.51,2.51,0,0,0,2.21-1.08,0.68,0.68,0,0,1,.28-0.31,0.39,0.39,0,0,1,.3.22,3.41,3.41,0,0,1-3.25,2.29,3.75,3.75,0,0,1-4.12-4.11,4.05,4.05,0,0,1,3.78-4.32A3.07,3.07,0,0,1,193,53.54c0,0.18-.08.2-0.23,0.2h-5.39Zm3.25-.54a0.53,0.53,0,0,0,.64-0.59,1.56,1.56,0,0,0-1.66-1.71c-1.36,0-1.93,1.08-2.12,2.3h3.14Z" transform="translate(-4.29 -12.48)"/><path class="cls-1" d="M196.32,56.92c0,1,0,1.24.87,1.24,0.51,0,.55,0,0.55.23s0,0.23-.19.23-0.34,0-1.66,0c-1.78,0-2.27,0-2.55,0s-0.15-.11-0.15-0.2,0-.27.72-0.27a0.71,0.71,0,0,0,.77-0.43,17.31,17.31,0,0,0,.11-2.59V52.68c0-.63-0.17-1-1.12-1.08a0.17,0.17,0,0,1-.17-0.22,0.22,0.22,0,0,1,.15-0.25,8.71,8.71,0,0,0,2.65-.88s0.06,0.05.06,0.2,0,0.5,0,1.3a5.89,5.89,0,0,1,3-1.24c0.64,0,2.5.13,2.5,2.7v4.32c0,0.31.06,0.65,1.23,0.65,0.19,0,.19.11,0.19,0.23s0,0.23-.26.23c-0.57,0-.91,0-1.91,0-1.53,0-1.83,0-2,0a0.18,0.18,0,0,1-.13-0.22,0.24,0.24,0,0,1,.26-0.25c0.91,0,1.08-.07,1.08-0.67V54.28c0-1.67-.15-2.79-2.12-2.79a2.85,2.85,0,0,0-1.81.83v4.61Z" transform="translate(-4.29 -12.48)"/><path class="cls-1" d="M205.65,55.43c0,1.91.17,2.59,1.66,2.59a3.22,3.22,0,0,0,1.29-.41,0.36,0.36,0,0,1,.21.29,2.93,2.93,0,0,1-2.51,1,2,2,0,0,1-2.17-2.23V51.88a0.19,0.19,0,0,0-.19-0.23H203a0.14,0.14,0,0,1-.11-0.16,0.31,0.31,0,0,1,.11-0.25c1.76-1.26,2.12-2.21,2.5-2.21a0.22,0.22,0,0,1,.23.23c0,0.32-.06.63-0.06,1.66h2.91c0.13,0,.19.13,0.19,0.38a0.43,0.43,0,0,1-.51.45c-0.13,0-1-.09-2.59-0.09v3.78Z" transform="translate(-4.29 -12.48)"/><path class="cls-1" d="M212.46,56.92c0,1,0,1.24.87,1.24,0.42,0,.45,0,0.45.23s0,0.23-.19.23-0.34,0-1.57,0c-1.78,0-2.27,0-2.55,0s-0.15-.11-0.15-0.2,0-.27.72-0.27a0.71,0.71,0,0,0,.78-0.43,17.46,17.46,0,0,0,.11-2.59V52.68c0-.63-0.17-1-1.12-1.08a0.17,0.17,0,0,1-.17-0.22,0.22,0.22,0,0,1,.15-0.25,8.71,8.71,0,0,0,2.65-.88,0.16,0.16,0,0,1,.11.2,15.49,15.49,0,0,0-.09,2.59v3.89ZM210.7,46.79a1,1,0,1,1,1,1A1,1,0,0,1,210.7,46.79Z" transform="translate(-4.29 -12.48)"/><path class="cls-1" d="M219.87,56.4c0,0.88-.49,2.45-3.08,2.45-0.34,0-1.44-.14-2.17-0.14a0.12,0.12,0,0,1-.09-0.09c0-.18-0.43-1.76-0.43-1.94s0.26-.11.34-0.11c0.45,0,.57,1.82,2.38,1.82a1.57,1.57,0,0,0,1.72-1.6c0-1.89-4.23-1.28-4.23-3.83a2.61,2.61,0,0,1,2.87-2.45,16,16,0,0,1,2,.16,0.5,0.5,0,0,1,.28.5c0,0.74.21,1.21,0.21,1.44a0.18,0.18,0,0,1-.21.14,0.33,0.33,0,0,1-.38-0.25,2.19,2.19,0,0,0-2-1.53,1.34,1.34,0,0,0-1.51,1.35,1.37,1.37,0,0,0,.89,1.21C218.51,54.42,219.87,54.37,219.87,56.4Z" transform="translate(-4.29 -12.48)"/><path class="cls-1" d="M223.44,55.43c0,1.91.17,2.59,1.66,2.59a3.22,3.22,0,0,0,1.29-.41,0.36,0.36,0,0,1,.21.29,2.93,2.93,0,0,1-2.51,1,2,2,0,0,1-2.17-2.23V51.88a0.19,0.19,0,0,0-.19-0.23h-0.95a0.14,0.14,0,0,1-.11-0.16,0.31,0.31,0,0,1,.11-0.25c1.76-1.26,2.12-2.21,2.5-2.21a0.22,0.22,0,0,1,.23.23c0,0.32-.06.63-0.06,1.66h2.91c0.13,0,.19.13,0.19,0.38a0.43,0.43,0,0,1-.51.45c-0.13,0-1-.09-2.59-0.09v3.78Z" transform="translate(-4.29 -12.48)"/><path class="cls-1" d="M228.71,52.68c0-.63-0.17-1-1.12-1.08a0.17,0.17,0,0,1-.17-0.22,0.22,0.22,0,0,1,.15-0.25,8.71,8.71,0,0,0,2.65-.88,0.21,0.21,0,0,1,.08.18c0,0.22-.09.67-0.09,1.64a4.26,4.26,0,0,1,2.65-1.57,1.06,1.06,0,0,1,1.21,1,0.91,0.91,0,0,1-.93.9c-0.77,0-.89-0.68-1.46-0.68a2.14,2.14,0,0,0-1.3.77,0.73,0.73,0,0,0-.13.52v4.09c0,0.67,0,1.06.95,1.06,0.7,0,.78,0,0.78.22s-0.08.25-.28,0.25c-0.68,0-1.29,0-2.16,0-1.51,0-1.83,0-2.19,0a0.19,0.19,0,0,1-.17-0.23c0-.18.23-0.23,0.59-0.23,0.81,0,1-.14,1-0.92V52.68Z" transform="translate(-4.29 -12.48)"/><path class="cls-1" d="M242.19,51.88c0-.59-0.89-0.61-1.46-0.61-0.17,0-.19-0.09-0.19-0.23a0.21,0.21,0,0,1,.17-0.23c0.61,0,1.23,0,1.83,0s1.17,0,1.76,0c0.13,0,.13.16,0.13,0.23s-0.06.22-.32,0.23a1.13,1.13,0,0,0-1.19.79c-0.68,1.5-3.29,6.72-3.71,7.72-1.46,3.47-2.08,3.71-2.7,3.71a1,1,0,1,1,0-2,4.22,4.22,0,0,1,.95.31c0.34,0,1.23-1.73,1.23-2.58a8.35,8.35,0,0,0-.66-2c-1.19-2.92-1.55-4.48-1.95-5.49a1.69,1.69,0,0,0-1.36-.41,0.2,0.2,0,0,1-.17-0.25,0.2,0.2,0,0,1,.21-0.22c0.23,0,1.42,0,2.1,0s1.3,0,1.87,0A0.2,0.2,0,0,1,239,51a0.22,0.22,0,0,1-.19.23c-0.11,0-.93,0-0.93.4,0,0.86.64,2.65,1.87,5.65A35.77,35.77,0,0,0,242.19,51.88Z" transform="translate(-4.29 -12.48)"/><rect class="cls-1" x="91.38" y="28.19" width="159.71" height="1"/></svg>