<svg id="Layer_1" data-name="Layer 1" xmlns="http://www.w3.org/2000/svg" width="234.21" height="70.05" viewBox="0 0 234.21 70.05"><defs><style>.cls-1{fill:#27aae1;}.cls-2{fill:#e68643;}.cls-3{fill:#912686;}.cls-4{fill:#74ba44;}.cls-5{fill:#00aeef;opacity:0.18;}.cls-6{fill:#9e248f;opacity:0.33;}.cls-7{fill:#262262;}</style></defs><title>little-smiles_logo</title><path class="cls-1" d="M64.57,36.51A25.76,25.76,0,1,1,38.81,10.74,25.76,25.76,0,0,1,64.57,36.51M40.51,23.57H24.06v1.7h9.8c1.27,0,1.27.47,1.27,0.65,0,0,0,1.38,0,1.38V37.54s0,1.35,0,1.35c0,0.19,0,.68-1.27.68h-0.3v1.7H45.81v-4h-2v1.36c0,0.33-.09.64-0.77,0.64l-0.73,0H40.87c-1.35,0-1.52-.22-1.52-0.23a4.29,4.29,0,0,1-.15-1.52V27.29s0-1.36,0-1.36c0-.19,0-0.67,1.27-0.67h0.3v-1.7h-0.3ZM52,32.18h0a13.35,13.35,0,0,0-1.11,4.45l-0.05.71a22.37,22.37,0,0,1-.34,2.88c-0.74,4.23-3.38,11.32-12.72,11.32A13,13,0,0,1,28,47.39a13.41,13.41,0,0,1-3.57-9s0-.46,0-0.47a1.9,1.9,0,0,0,1.89-1.48,1.76,1.76,0,0,0-.22-1.36,2,2,0,0,0-1.27-.85,2.21,2.21,0,0,0-1.67.33,3.14,3.14,0,0,0-1.38,2.07,10.85,10.85,0,0,0,0,2.2A16.56,16.56,0,0,0,38.1,53.73,16.39,16.39,0,0,0,54.51,38h0a1.32,1.32,0,0,0,0-.16l0-.45c0,0.07.11-1.33,0.11-1.33a7.79,7.79,0,0,1,.86-3.54,1.73,1.73,0,0,1,1.38-.85c0.46,0,.46.15,0.46,0.35a1,1,0,0,1-.23.55h0l-0.2.26v0.1l-0.07.41a1.29,1.29,0,0,0,.07.22,1.25,1.25,0,0,0,1.46,1A2.62,2.62,0,0,0,61,32c0-1.74-1.57-3-3.73-3A5.83,5.83,0,0,0,52,32.18Z" transform="translate(-3.68 -3.44)"/><path class="cls-2" d="M222.06,28.59A10.48,10.48,0,1,1,215.71,42a10.48,10.48,0,0,1,6.35-13.39m-1.67,11,2.25,6.3,0.65-.23-1.34-3.76c-0.17-.49,0-0.55.08-0.58l0.52-.21,3.93-1.4,0.52-.17c0.07,0,.26-0.09.43,0.39l0,0.11,0.65-.23-1.67-4.69-1.54.55,0.27,0.76,0.27-.09,0.25-.09c0.13,0,.26-0.05.35,0.21l0.11,0.28,0.2,0.55a0.92,0.92,0,0,1,.12.61,1.77,1.77,0,0,1-.56.27L222,39.57l-0.53.17c-0.07,0-.26.09-0.43-0.39l0-.11-0.65.23ZM222.12,34h0a5.39,5.39,0,0,0,1.86-.18l0.28-.08a8.7,8.7,0,0,1,1.15-.26c1.72-.3,4.8-0.26,6.07,3.32a5.28,5.28,0,0,1-.25,4.33,5.46,5.46,0,0,1-3,2.6l-0.18.06a0.77,0.77,0,0,0-.82-0.52,0.7,0.7,0,0,0-.49.27,0.81,0.81,0,0,0-.15.6,0.9,0.9,0,0,0,.35.59,1.29,1.29,0,0,0,1,.25,4.49,4.49,0,0,0,.84-0.3A6.68,6.68,0,0,0,224,32.24h-0.06l-0.18,0s-0.52.14-.52,0.14a3.14,3.14,0,0,1-1.47.15,0.7,0.7,0,0,1-.51-0.41c-0.06-.18,0-0.2.07-0.22a0.41,0.41,0,0,1,.24,0h0l0.13,0h0l0.17,0,0.07-.06a0.51,0.51,0,0,0,.19-0.7,1.07,1.07,0,0,0-1.34-.64,1.35,1.35,0,0,0-.64,1.84A2.37,2.37,0,0,0,222.12,34Z" transform="translate(-3.68 -3.44)"/><path class="cls-3" d="M127.37,30a9,9,0,1,1,6.78-10.7A9,9,0,0,1,127.37,30m2.56-9.15-1.25-5.58-0.58.13,0.75,3.33c0.1,0.43-.06.47-0.12,0.48l-0.47.12-3.48.78-0.46.09c-0.07,0-.23.05-0.33-0.38l0-.1-0.58.13L124.33,24l1.36-.3L125.54,23l-0.24,0-0.22,0c-0.11,0-.22,0-0.28-0.21l-0.06-.25-0.11-.49a0.81,0.81,0,0,1,0-.53,1.52,1.52,0,0,1,.51-0.17l3.48-.78,0.46-.09c0.07,0,.23,0,0.32.38l0,0.1L130,21Zm-2,4.56h0a4.63,4.63,0,0,0-1.6,0l-0.24,0a7.93,7.93,0,0,1-1,.1,4.29,4.29,0,0,1-4.81-3.45,4.52,4.52,0,0,1,.66-3.65,4.67,4.67,0,0,1,2.78-1.9l0.16,0a0.66,0.66,0,0,0,.65.53,0.62,0.62,0,0,0,.45-0.18,0.71,0.71,0,0,0,.19-0.5,0.77,0.77,0,0,0-.24-0.54,1.09,1.09,0,0,0-.81-0.31,3.8,3.8,0,0,0-.75.16,5.76,5.76,0,0,0-3.82,6.69,5.7,5.7,0,0,0,6.59,4.37h0.05l0.16,0s0.46-.07.46-0.07a2.73,2.73,0,0,1,1.27,0,0.6,0.6,0,0,1,.39.4c0,0.16,0,.17-0.08.18a0.35,0.35,0,0,1-.21,0h0l-0.1,0h-0.18l-0.07,0a0.44,0.44,0,0,0-.23.57,0.91,0.91,0,0,0,1.07.68,1.15,1.15,0,0,0,.74-1.49A2,2,0,0,0,127.89,25.41Z" transform="translate(-3.68 -3.44)"/><path class="cls-4" d="M143.88,20.15a21.87,21.87,0,0,0-2,8.24l-0.33,3.47,0,0.34-0.42,3.27c-0.69,3.72-1.95,6-4.08,7.41a9.42,9.42,0,0,1-4.9,1.45c-4,0-6.35-2.52-6.35-5a2.12,2.12,0,0,1,.14-1l0.45,0.06a2.55,2.55,0,0,0,2.41-2.55,2.44,2.44,0,0,0-2.63-2.44c-1.94,0-3.57,2.09-3.57,4.56,0,4,3.28,8.25,9.56,8.54a12.59,12.59,0,0,0,11.46-6c1.44-2.54,2.21-5.8,2.58-10.92h0L146.35,27c0.32-3.23.55-5.47,1.9-7.6A4.89,4.89,0,0,1,152.19,17a2.1,2.1,0,0,1,2.37,2.15,3.25,3.25,0,0,1-.66,1.86l-0.22.3-0.07.36,0.22,0.58-0.19-.47c0,0.42.25,0.91,1.46,0.91a3.64,3.64,0,0,0,3.61-3.58c0-2.56-2.45-4.41-5.83-4.41a10,10,0,0,0-9,5.44m-1.44,15.59" transform="translate(-3.68 -3.44)"/><rect class="cls-4" x="64.78" y="17.79" width="2.38" height="24.48"/><path class="cls-4" d="M79.32,26.51a1.69,1.69,0,0,1-3.38,0,1.69,1.69,0,0,1,3.38,0m-0.5,5.25V45.71H76.44V31.76h2.37Z" transform="translate(-3.68 -3.44)"/><polyline class="cls-4" points="83.32 42.27 80.95 42.27 80.95 30.52 79.5 30.52 79.5 28.32 80.95 28.32 80.95 23.31 83.32 23.31 83.32 28.32 85.82 28.32 85.82 30.52 83.32 30.52 83.32 42.27"/><polyline class="cls-4" points="91.19 42.27 88.81 42.27 88.81 30.52 87.36 30.52 87.36 28.32 88.81 28.32 88.81 23.31 91.19 23.31 91.19 28.32 93.68 28.32 93.68 30.52 91.19 30.52 91.19 42.27"/><rect class="cls-4" x="96.5" y="17.79" width="2.37" height="24.48"/><path class="cls-4" d="M108.9,39.24a4.52,4.52,0,0,0,4.57,4.66A4.77,4.77,0,0,0,117.72,41l2,1.16a7,7,0,0,1-6.44,3.92c-4.15,0-6.83-3.18-6.83-7.18s2.4-7.54,6.77-7.54,6.85,3.71,6.62,7.86H108.9m8.46-2a4.26,4.26,0,0,0-4.09-3.65A4.41,4.41,0,0,0,109,37.22h8.34Z" transform="translate(-3.68 -3.44)"/><path class="cls-4" d="M152,32.44H152a4.38,4.38,0,0,1,3.56-1.78,4.62,4.62,0,0,1,4.19,2.29A5,5,0,0,1,164,30.66c3.71,0,4.63,2.79,4.63,6v9.08h-4.16V38.05c0-1.43.09-4.06-2-4.06-2.25,0-2.23,3.05-2.23,4.57v7.15h-4.15V38.32c0-1.43.18-4.33-2-4.33S152,37,152,38.55v7.15h-4.15V31.14H152v1.31" transform="translate(-3.68 -3.44)"/><path class="cls-4" d="M177.09,25a2.46,2.46,0,1,1-2.46-2.46A2.46,2.46,0,0,1,177.09,25m-0.39,6.11V45.71h-4.15V31.14h4.15Z" transform="translate(-3.68 -3.44)"/><rect class="cls-4" x="176.91" y="17.1" width="4.15" height="25.16"/><path class="cls-4" d="M191.78,39.09c0,1.84.71,3.92,2.88,3.92a3,3,0,0,0,2.79-2l3.83,0.62a6.7,6.7,0,0,1-6.62,4.54c-4.51,0-7.27-3.21-7.27-7.63s2.34-7.89,7.06-7.89,6.91,3.53,6.91,7.92v0.5h-9.58m5.67-2.58c-0.21-1.48-1.16-2.94-2.76-2.94s-2.58,1.43-2.79,2.94h5.55Z" transform="translate(-3.68 -3.44)"/><path class="cls-4" d="M211.52,34.58a3.3,3.3,0,0,0-2.19-1A1.34,1.34,0,0,0,208,34.81c0,1.07,1.51,1.37,3,2a4.21,4.21,0,0,1,3,4.18c0,3.23-2.61,5.16-5.67,5.16a6.69,6.69,0,0,1-5.13-2.43l1.9-2.46A4.4,4.4,0,0,0,208.13,43a1.57,1.57,0,0,0,1.66-1.57c0-1.28-1.45-1.57-2.91-2.2S204,37.72,204,35.38a4.49,4.49,0,0,1,4.63-4.72,7.57,7.57,0,0,1,4.69,1.51l-1.78,2.4" transform="translate(-3.68 -3.44)"/><path class="cls-5" d="M8.09,36.81H8a1.23,1.23,0,0,1-1.09-1.36c1.19-10.73,5-18.55,11.29-23.25A25.71,25.71,0,0,1,36.7,7.65a1.23,1.23,0,0,1-.44,2.43c-0.15,0-9.14-1.52-16.66,4.11-5.72,4.28-9.18,11.52-10.29,21.52A1.23,1.23,0,0,1,8.09,36.81Z" transform="translate(-3.68 -3.44)"/><path class="cls-5" d="M4.92,28.42H4.78a1.23,1.23,0,0,1-1.09-1.36C6.44,2.18,27.31,3.44,27.52,3.45a1.23,1.23,0,0,1-.18,2.46h0c-0.76,0-18.71-1.05-21.19,21.41A1.23,1.23,0,0,1,4.92,28.42Z" transform="translate(-3.68 -3.44)"/><path class="cls-6" d="M124.88,31.69h0c-3.63-.25-6.32-1.42-8-3.47A8.67,8.67,0,0,1,115.06,22a0.41,0.41,0,0,1,.82.11,8,8,0,0,0,1.62,5.56c1.52,1.87,4,2.93,7.4,3.16A0.41,0.41,0,0,1,124.88,31.69Z" transform="translate(-3.68 -3.44)"/><path class="cls-6" d="M122.09,32.88h0c-8.42-.58-8.29-7.62-8.29-7.69a0.4,0.4,0,0,1,.42-0.4,0.41,0.41,0,0,1,.4.42c0,0.26-.09,6.33,7.52,6.85A0.41,0.41,0,0,1,122.09,32.88Z" transform="translate(-3.68 -3.44)"/><path class="cls-3" d="M69.2,48.34l2.56,0.15a8,8,0,0,1,2.56.67,1.86,1.86,0,0,1,1.12,1,3.71,3.71,0,0,1,.08,1.07l0,0.48-0.18.61A2.73,2.73,0,0,1,73.89,54a1.91,1.91,0,0,1-1.13.49,9.32,9.32,0,0,1-2.14.34l-0.33,0,0,0.51,0,0.55-0.2,2.74,0,0-1.54-.1-0.07-.08a3.57,3.57,0,0,0,.21-1.16l0.06-.92a4,4,0,0,1-.09-1L69,48.58A0.24,0.24,0,0,1,69.2,48.34Zm1.6,1.72,0,0.36,0,1.12-0.07,1.26,0.14,0.14,0.46,0a1.86,1.86,0,0,0,1.12-.33,2.5,2.5,0,0,0,.86-1.17,1.27,1.27,0,0,0-.77-0.94A4.34,4.34,0,0,0,71.2,50l-0.32,0Z" transform="translate(-3.68 -3.44)"/><path class="cls-3" d="M79.23,48.63L83,48.94a3.19,3.19,0,0,1,.18,1.39l0,0.13v0.17a4,4,0,0,1-1.7.23l-1-.09-2,.18L78.4,51l-0.06.74,0.08,0.09,0.91,0.08,0.8-.1,0.79,0.06a0.23,0.23,0,0,1,.11.26l0,0.2-0.12.45,0,0.63a1.16,1.16,0,0,1-.65.28H80.06a2.92,2.92,0,0,0-1.47.18l-0.07.74-0.12.45L78.34,56a6.76,6.76,0,0,0,1.11.18h0.17a16.41,16.41,0,0,1,3.22-.07H83l0,0-0.15,1.79,0,0.17c0,0.17-.31.23-0.89,0.18l-1.39.13-0.7-.06-1.05.09L78,58.34l-0.67,0-1.24-.11L76,58.17l0.13-1L76,56.38l0.06-.66,0.11-.24,0.45-4.93,0.14-1.7Q76.77,48.61,79.23,48.63Z" transform="translate(-3.68 -3.44)"/><path class="cls-3" d="M84.37,48.22l2.41,0.35a9.1,9.1,0,0,1,3.3,1.23,4.19,4.19,0,0,1,1.81,1.41,5.21,5.21,0,0,1,.39,2.12l-0.06,1v0a6.12,6.12,0,0,1-1.05,2.44,2.91,2.91,0,0,1-1.65,1.34,13.27,13.27,0,0,1-4.09.28,2.87,2.87,0,0,0-1,0l-0.52-.08q-0.2,0,0-3.83l0.33-2.32,0-3.31,0.09-.59Zm1.75,2.5q0.2,0,.08.92a16.68,16.68,0,0,1,0,2.23,1.63,1.63,0,0,1,0,.75c0.05,0,.07.1,0,0.29l-0.13.85a4.78,4.78,0,0,0,.13,1.09l0.17,0a4.22,4.22,0,0,0,2.28-.62,4.71,4.71,0,0,0,1.11-1.4L90,54.42V53a3.09,3.09,0,0,0-1.71-1.62,3.76,3.76,0,0,0-1.31-.6l-0.77-.11Z" transform="translate(-3.68 -3.44)"/><path class="cls-3" d="M96.16,58.3H95.87a12.63,12.63,0,0,0-1.66-.06l-0.68,0a4.06,4.06,0,0,1-.3-1.14c-0.06,0-.09-0.06-0.09-0.2V56.85A1.26,1.26,0,0,1,94,56.56V56.48h0l0,0-0.25-6.19a0.83,0.83,0,0,1-.78-0.18l0-1.39a2,2,0,0,1,1.17-.26c0-.05.07-0.08,0.21-0.09l1.48-.06,0.54,0.69,0,1.06-0.09.09H96.17l-0.64.07,0,0.21,0.1,2.33-0.11.6,0.15,3.51,0.56,0a0.16,0.16,0,0,1,.13.17,2.44,2.44,0,0,1-.1.77l0,0.47Z" transform="translate(-3.68 -3.44)"/><path class="cls-3" d="M100.06,48.58l0.18,0,0,0h0l0.18,0,0.13,0,0.26,0,0.12,0,0.14,0,1-.29q1.29,0,1.3.24a4.22,4.22,0,0,0,.32,1.27l0,0v0a1.33,1.33,0,0,0,.19.58l0,0v0a4,4,0,0,0,.26.94l0,0v0q0.65,2.85.95,3.67,0.36,1.8.61,2.67v0.18l0,0v0a1.08,1.08,0,0,1-.52-0.06l0,0h-0.13l-0.18,0-0.13,0-0.3-.07,0,0h0l0,0h0l0,0h0a1.62,1.62,0,0,1-.65-0.14l-1-3.73a0.64,0.64,0,0,0-.2-0.6l-1.55-.09a20.62,20.62,0,0,0-.51,2.26l-0.41,1.22a3.9,3.9,0,0,0-.32,1.34h0l-0.18,0-0.13,0v0l0,0h0l0,0h0l-0.37,0-0.13,0-0.38.06-0.35,0-0.17,0-0.13,0-0.18.06-0.09-.09A11,11,0,0,1,97.68,56a10.65,10.65,0,0,1,.43-1.66,26.84,26.84,0,0,1,.62-3,11.92,11.92,0,0,1,.61-2.3c0-.2,0-0.3.07-0.3h0.18Zm1.48,2.2a2.56,2.56,0,0,1-.29,1l0,0.13a0.81,0.81,0,0,0-.27.57l0.06,0.22,0,0,0.69,0.14,0-.23h0L102,53l0.09-.3h0.08a5.55,5.55,0,0,0-.54-2.11Z" transform="translate(-3.68 -3.44)"/><path class="cls-3" d="M114.45,48.26v1.48a0.53,0.53,0,0,1-.2.49H113l-1.6,0,0,0q0.07,0.2.26,1.82l0,2.58V55.7l-0.12,1.14v1.44l-0.07.08h-1.68l-0.57,0v0l0,0V51.1l0.08-.6V50.31l-0.08-.08H109l-1.7-.07H107a1.19,1.19,0,0,1-.88-0.27v-1l0.08-.42v-0.3l0.08-.08h7.48A0.86,0.86,0,0,1,114.45,48.26Z" transform="translate(-3.68 -3.44)"/><path class="cls-3" d="M117.21,48.23l1,0a19.92,19.92,0,0,1,2.21.22l0.15,0q2.81,0.22,2.9,2v0.19a3.48,3.48,0,0,1-.46,1.88,0.1,0.1,0,0,0-.11.12,1.38,1.38,0,0,1-1.21.83c0,0.05,0,.08-0.11.08a1.4,1.4,0,0,0-.64.11l0,0.15a8.75,8.75,0,0,1,1.28,1.6L123.28,57a2.26,2.26,0,0,1,.58.76L124.13,58a0.43,0.43,0,0,1-.39.17l-1.11.07-1.55.18a4,4,0,0,1-.48-0.85,14.43,14.43,0,0,0-.81-1.56,8.73,8.73,0,0,1-.9-1.37,5.13,5.13,0,0,1-.48-0.92l-0.36-.06-0.36,0L117.8,56a17.5,17.5,0,0,0,0,2.43v0.18l-0.11.12h-0.32l-0.88-.1-1,0s-0.07,0-.08-0.11l0-.58V57.83l0-.1,0-.19,0-.36,0-.11V57h0l-0.06-2-0.11-2.24a11,11,0,0,1,0-1.52l-0.08-1.59-0.1-.58,0-.32a2.26,2.26,0,0,1,1-.26Zm0.22,1.57,0.11,2.14a0.71,0.71,0,0,0,.6.23l0.39,0a5.29,5.29,0,0,0,2.09-.53l0.17-.23V51.08a1.71,1.71,0,0,0-1-1,4.52,4.52,0,0,0-1.43-.39l-0.88,0Z" transform="translate(-3.68 -3.44)"/><path class="cls-3" d="M127.75,58.3h-0.29a12.63,12.63,0,0,0-1.66-.06l-0.68,0a4.07,4.07,0,0,1-.3-1.14c-0.06,0-.09-0.06-0.09-0.2V56.85a1.26,1.26,0,0,1,.84-0.28V56.48h0l0,0-0.25-6.19a0.83,0.83,0,0,1-.78-0.18l0-1.39a2,2,0,0,1,1.17-.26c0-.05.07-0.08,0.21-0.09l1.48-.06,0.54,0.69,0,1.06-0.09.09h-0.08l-0.64.07,0,0.21,0.1,2.33-0.11.6,0.15,3.51,0.56,0a0.16,0.16,0,0,1,.13.17,2.44,2.44,0,0,1-.1.77l0,0.47Z" transform="translate(-3.68 -3.44)"/><path class="cls-3" d="M132.81,48.23l1.93,0.16a4.62,4.62,0,0,1,1.94,2.27l0.13,0.78-0.34,0-1-.16a3.12,3.12,0,0,1-1.08-.07c0-.68-0.2-1-0.5-1.09l-0.29,0a2.21,2.21,0,0,0-2.55,1.64l-0.16.68v1.67a3.24,3.24,0,0,0,1.29,2.19,0.41,0.41,0,0,1,.23.17l0.36,0.06a2.87,2.87,0,0,0,1.28-1.11l0.33-.62,0.07-.41,0,0v0a8.74,8.74,0,0,1,2.16.08l-0.21,1.27c-0.27.54-.48,0.94-0.63,1.21a5.9,5.9,0,0,1-1.44,1.33,2.93,2.93,0,0,0-1.17.39l-0.17,0q-2.28-.36-2.78-1a1.91,1.91,0,0,1-1-1q-0.16-.9-0.42-2.08a2.55,2.55,0,0,1-.17-0.83l0.2-1.19q1.05-3.92,2.26-3.72Z" transform="translate(-3.68 -3.44)"/><path class="cls-3" d="M144.1,48.22l2.41,0.35a9.1,9.1,0,0,1,3.3,1.23,4.19,4.19,0,0,1,1.81,1.41,5.21,5.21,0,0,1,.39,2.12l-0.06,1v0a6.12,6.12,0,0,1-1.05,2.44,2.91,2.91,0,0,1-1.65,1.34,13.27,13.27,0,0,1-4.09.28,2.87,2.87,0,0,0-1,0l-0.52-.08q-0.2,0,0-3.83L144,52.2l0-3.31L144,48.3Zm1.75,2.5q0.2,0,.08.92a16.68,16.68,0,0,1,0,2.23,1.63,1.63,0,0,1,0,.75c0.05,0,.07.1,0,0.29l-0.13.85a4.78,4.78,0,0,0,.13,1.09l0.17,0a4.22,4.22,0,0,0,2.28-.62,4.71,4.71,0,0,0,1.11-1.4l0.15-.43V53A3.09,3.09,0,0,0,148,51.36a3.76,3.76,0,0,0-1.31-.6l-0.77-.11Z" transform="translate(-3.68 -3.44)"/><path class="cls-3" d="M155.58,48.63l3.77,0.31a3.2,3.2,0,0,1,.18,1.39l0,0.13v0.17a4,4,0,0,1-1.7.23l-1-.09-2,.18-0.09.08-0.06.74,0.08,0.09,0.91,0.08,0.8-.1,0.79,0.06a0.23,0.23,0,0,1,.11.26l0,0.2-0.12.45,0,0.63a1.15,1.15,0,0,1-.65.28h-0.13a2.92,2.92,0,0,0-1.47.18l-0.07.74-0.12.45-0.07.88a6.76,6.76,0,0,0,1.11.18H156a16.41,16.41,0,0,1,3.22-.07h0.17l0,0-0.15,1.79,0,0.17c0,0.17-.31.23-0.89,0.18l-1.39.13-0.7-.06-1.05.09-0.92-.08-0.67,0-1.24-.11-0.08-.09,0.13-1-0.11-.8,0.06-.66,0.11-.24L153,50.54l0.14-1.7Q153.11,48.61,155.58,48.63Z" transform="translate(-3.68 -3.44)"/><path class="cls-3" d="M160.05,48.68l1.08,0,0.44,0.06,0.48,0a8.54,8.54,0,0,1,1,1.79l1.32,2.44a1.09,1.09,0,0,0,.26.46,1.21,1.21,0,0,0,.43.64l0,0v0a0.68,0.68,0,0,1-.14-0.36l-0.61-4.94,0.08-.08h0.2l0.81,0.07,1.19,0a0.31,0.31,0,0,1,.18.29h0l0,0,0,0.18,0,0.23,0,0.15,0,0v0l0,0,0,0.26v0.25l-0.06,3.12,0.32,5.13a2.15,2.15,0,0,1-1.2.23l-0.92,0a0.81,0.81,0,0,1-.3-0.5q-1.24-2.38-1.65-3.37l-0.49-1.12h-0.08l0.06,2.27,0.1,2.09a0.27,0.27,0,0,1-.27.16l-0.72,0a5.18,5.18,0,0,0-1.07.17h-0.08l-0.13-.11-0.18-3.84,0-.89-0.19-4L160,49.19l0-.4Z" transform="translate(-3.68 -3.44)"/><path class="cls-3" d="M176.15,48.26v1.48a0.53,0.53,0,0,1-.2.49h-1.21l-1.6,0,0,0q0.07,0.2.26,1.82l0,2.58V55.7l-0.12,1.14v1.44l-0.07.08h-1.68l-0.57,0v0l0,0V51.1l0.08-.6V50.31l-0.08-.08h-0.12l-1.7-.07h-0.3a1.19,1.19,0,0,1-.88-0.27v-1l0.08-.42v-0.3L168,48.1h7.48A0.86,0.86,0,0,1,176.15,48.26Z" transform="translate(-3.68 -3.44)"/><path class="cls-3" d="M180.28,58.3H180a12.63,12.63,0,0,0-1.66-.06l-0.68,0a4.06,4.06,0,0,1-.3-1.14c-0.06,0-.09-0.06-0.09-0.2V56.85a1.26,1.26,0,0,1,.84-0.28V56.48h0l0,0-0.25-6.19a0.83,0.83,0,0,1-.78-0.18l0-1.39a2,2,0,0,1,1.17-.26c0-.05.07-0.08,0.21-0.09l1.48-.06,0.54,0.69,0,1.06-0.09.09h-0.08l-0.64.07,0,0.21,0.1,2.33-0.11.6,0.15,3.51,0.56,0a0.16,0.16,0,0,1,.13.17,2.44,2.44,0,0,1-.1.77l0,0.47Z" transform="translate(-3.68 -3.44)"/><path class="cls-3" d="M185.59,58.3l-1.44.13a2.49,2.49,0,0,1-2.13-1,3.79,3.79,0,0,1-.61-1.5l-0.07-.1,0,0h0.52l1.16-.29a1.82,1.82,0,0,1,.17.65,1.48,1.48,0,0,0,.72.37,1.7,1.7,0,0,0,1.51-.49V55.69q0-.71-2.25-2l-0.89-.62a1,1,0,0,0-.27-0.38,2.84,2.84,0,0,1-.56-1.43S181.4,51.2,181.4,51V50.29a1.61,1.61,0,0,1,1.08-1.54,1.27,1.27,0,0,1,.76-0.37l0.3-.1h1.57a6.43,6.43,0,0,1,1.27.3,3,3,0,0,1,1,1.75v0.41s-0.07.08-.2,0.1l-0.2,0-0.27,0-1.27-.11,0.07-.38a1,1,0,0,0-.72-0.58h-0.2q-0.92.1-.92,0.55a1.93,1.93,0,0,0-.11.68,1.51,1.51,0,0,0,.58,1.05,3.82,3.82,0,0,0,1.4,1,3.66,3.66,0,0,1,1.23,1.05,2.85,2.85,0,0,1,.78,1.91,3.18,3.18,0,0,1-.41,1.33A2.31,2.31,0,0,1,185.59,58.3Z" transform="translate(-3.68 -3.44)"/><path class="cls-3" d="M196.63,48.26v1.48a0.53,0.53,0,0,1-.2.49h-1.21l-1.6,0,0,0q0.07,0.2.26,1.82l0,2.58V55.7l-0.12,1.14v1.44l-0.07.08H192l-0.57,0v0l0,0V51.1l0.08-.6V50.31l-0.08-.08h-0.12l-1.7-.07h-0.3a1.19,1.19,0,0,1-.88-0.27v-1l0.08-.42v-0.3l0.08-.08H196A0.86,0.86,0,0,1,196.63,48.26Z" transform="translate(-3.68 -3.44)"/><path class="cls-3" d="M199.39,48.23l1,0a19.92,19.92,0,0,1,2.21.22l0.15,0q2.81,0.22,2.9,2v0.19a3.48,3.48,0,0,1-.46,1.88,0.1,0.1,0,0,0-.11.12,1.38,1.38,0,0,1-1.21.83c0,0.05,0,.08-0.11.08a1.4,1.4,0,0,0-.64.11l0,0.15a8.75,8.75,0,0,1,1.28,1.6L205.47,57a2.26,2.26,0,0,1,.58.76L206.31,58a0.43,0.43,0,0,1-.39.17l-1.11.07-1.55.18a4,4,0,0,1-.48-0.85A14.43,14.43,0,0,0,202,56a8.73,8.73,0,0,1-.9-1.37,5.13,5.13,0,0,1-.48-0.92l-0.36-.06-0.36,0L200,56a17.5,17.5,0,0,0,0,2.43v0.18l-0.11.12h-0.32l-0.88-.1-1,0s-0.07,0-.08-0.11l0-.58V57.83l0-.1,0-.19,0-.36,0-.11V57h0l-0.06-2-0.11-2.24a11,11,0,0,1,0-1.52l-0.08-1.59-0.1-.58,0-.32a2.26,2.26,0,0,1,1-.26Zm0.22,1.57,0.11,2.14a0.71,0.71,0,0,0,.6.23l0.39,0a5.29,5.29,0,0,0,2.09-.53l0.17-.23V51.08a1.71,1.71,0,0,0-1-1,4.52,4.52,0,0,0-1.43-.39l-0.88,0Z" transform="translate(-3.68 -3.44)"/><path class="cls-3" d="M209.17,48.37l0,0a7.66,7.66,0,0,0,1.72,2H211a8.86,8.86,0,0,1,2.37-2.11h2.16l0.08,0.08-0.12.12a17.92,17.92,0,0,1-2.6,2.74,2,2,0,0,0-.85,1.41v5.66l-0.08.08h-1.69Q210,58.36,210,57V55.92l0.08-2.32V52.26l-2.29-2.48-1.23-1.4c0-.08,0-0.12.08-0.12Z" transform="translate(-3.68 -3.44)"/><path class="cls-7" d="M14.81,65.79h0.91a2.3,2.3,0,0,1,1.39.38,1.3,1.3,0,0,1,.51,1.12,1.36,1.36,0,0,1-1,1.43,1.42,1.42,0,0,1,1.24,1.38q0,1.79-2.25,1.79H12.85V71.14l0.65-.22V66.82l-0.65-.26V65.84Zm0,1v1.47h0.5a0.79,0.79,0,0,0,1-.8,0.6,0.6,0,0,0-.2-0.5,0.8,0.8,0,0,0-.53-0.17H14.81Zm0.5,2.38h-0.5v1.69h0.72a1,1,0,0,0,.69-0.21,0.72,0.72,0,0,0,.24-0.57,0.83,0.83,0,0,0-.28-0.69A1.38,1.38,0,0,0,15.31,69.19Z" transform="translate(-3.68 -3.44)"/><path class="cls-7" d="M18.48,67.29l1.79-.07,0.08,0.6,0.19-.19a2.82,2.82,0,0,1,.44-0.3,1.14,1.14,0,0,1,.57-0.19,2.09,2.09,0,0,1,.4,0,1.49,1.49,0,0,1,.29.08l0.09,0-0.07,1.64H21.51l-0.13-.73a1,1,0,0,0-.46.12,1.41,1.41,0,0,0-.35.24l-0.12.12V71l0.82,0.22v0.69H18.48V71.2L19.17,71V68.16L18.48,68V67.29Z" transform="translate(-3.68 -3.44)"/><path class="cls-7" d="M27.34,71.83l-1.71.06-0.16-.56-0.21.18a2.8,2.8,0,0,1-.5.29,1.58,1.58,0,0,1-.7.18,1.33,1.33,0,0,1-1-.36,1.35,1.35,0,0,1-.35-1q0-1.43,2.07-1.43h0.6V68.72a0.58,0.58,0,0,0-.67-0.65,2.14,2.14,0,0,0-.39,0l-0.29.07L24,68.2l-0.13.56H23.08L23,67.48a6.05,6.05,0,0,1,1.88-.35,2,2,0,0,1,1.39.38,1.78,1.78,0,0,1,.41,1.33V71l0.65,0.16v0.69ZM24,70.49a0.45,0.45,0,0,0,.51.52,0.91,0.91,0,0,0,.44-0.12,1.6,1.6,0,0,0,.36-0.26l0.13-.12V69.93H24.92a1.46,1.46,0,0,0-.72.13A0.46,0.46,0,0,0,24,70.49Z" transform="translate(-3.68 -3.44)"/><path class="cls-7" d="M32.78,71.83L31,71.89l-0.08-.46a1.78,1.78,0,0,1-1.31.54,1.54,1.54,0,0,1-1.33-.61,2.85,2.85,0,0,1-.44-1.7,2.63,2.63,0,0,1,.62-1.88,2.4,2.4,0,0,1,1.83-.65,1.87,1.87,0,0,1,.56.09v-1.1L30.13,66V65.26l2-.07V71l0.69,0.17v0.69Zm-2-1.36V68.26a1.34,1.34,0,0,0-.67-0.13q-1,0-1,1.47T30,71a0.88,0.88,0,0,0,.45-0.12,1,1,0,0,0,.3-0.25Z" transform="translate(-3.68 -3.44)"/><path class="cls-7" d="M37.27,65.79h0.91a2.3,2.3,0,0,1,1.39.38,1.3,1.3,0,0,1,.51,1.12,1.36,1.36,0,0,1-1,1.43,1.42,1.42,0,0,1,1.24,1.38q0,1.79-2.25,1.79H35.31V71.14L36,70.92V66.82l-0.65-.26V65.84Zm0,1v1.47h0.5a0.79,0.79,0,0,0,1-.8,0.6,0.6,0,0,0-.2-0.5A0.8,0.8,0,0,0,38,66.82H37.27Zm0.5,2.38h-0.5v1.69H38a1,1,0,0,0,.69-0.21,0.72,0.72,0,0,0,.24-0.57,0.83,0.83,0,0,0-.28-0.69A1.38,1.38,0,0,0,37.78,69.19Z" transform="translate(-3.68 -3.44)"/><path class="cls-7" d="M45.57,71.83l-1.71.06-0.16-.56-0.21.18a2.8,2.8,0,0,1-.5.29,1.58,1.58,0,0,1-.7.18,1.33,1.33,0,0,1-1-.36,1.35,1.35,0,0,1-.35-1q0-1.43,2.07-1.43h0.6V68.72A0.58,0.58,0,0,0,43,68.07a2.14,2.14,0,0,0-.39,0l-0.29.07-0.09,0-0.13.56H41.31l-0.06-1.28a6.05,6.05,0,0,1,1.88-.35,2,2,0,0,1,1.39.38,1.78,1.78,0,0,1,.41,1.33V71l0.65,0.16v0.69Zm-3.36-1.34a0.45,0.45,0,0,0,.51.52,0.91,0.91,0,0,0,.44-0.12,1.6,1.6,0,0,0,.36-0.26l0.13-.12V69.93H43.15a1.46,1.46,0,0,0-.72.13A0.46,0.46,0,0,0,42.21,70.49Z" transform="translate(-3.68 -3.44)"/><path class="cls-7" d="M46.07,67.29l1.79-.07,0.08,0.6,0.19-.19a2.82,2.82,0,0,1,.44-0.3,1.14,1.14,0,0,1,.57-0.19,2.09,2.09,0,0,1,.4,0,1.49,1.49,0,0,1,.29.08l0.09,0-0.07,1.64H49.09L49,68.2a1,1,0,0,0-.46.12,1.41,1.41,0,0,0-.35.24L48,68.68V71l0.82,0.22v0.69H46.07V71.2L46.76,71V68.16L46.07,68V67.29Z" transform="translate(-3.68 -3.44)"/><path class="cls-7" d="M50.21,65.26l2-.07V71L53,71.2v0.69H50.21V71.2L50.91,71V66.12L50.21,66V65.26Z" transform="translate(-3.68 -3.44)"/><path class="cls-7" d="M55.73,67.13a2.09,2.09,0,0,1,1.61.61,2.44,2.44,0,0,1,.57,1.72,2.58,2.58,0,0,1-.63,1.83A2.18,2.18,0,0,1,55.6,72q-2.2,0-2.2-2.38A2.49,2.49,0,0,1,54,67.79,2.26,2.26,0,0,1,55.73,67.13Zm0,1a0.83,0.83,0,0,0-.72.32,2,2,0,0,0-.23,1.11A2.09,2.09,0,0,0,55,70.64a0.76,0.76,0,0,0,.69.34,0.78,0.78,0,0,0,.7-0.34,2.12,2.12,0,0,0,.23-1.13,2,2,0,0,0-.21-1A0.73,0.73,0,0,0,55.69,68.13Z" transform="translate(-3.68 -3.44)"/><path class="cls-7" d="M62.61,67.18l0.94,3.31,0.51-2.4L63.53,68V67.27l2.21,0V68l-0.46.1-1.15,3.83H62.82l-0.68-2.2L62,69,61.76,70l-0.63,1.94H59.82l-1.18-3.81L58.26,68V67.27l2.26,0V68l-0.54.1,0.57,2.43,0.92-3.12Z" transform="translate(-3.68 -3.44)"/><path class="cls-7" d="M66.41,71.21a0.75,0.75,0,0,1,.21-0.56,0.72,0.72,0,0,1,.53-0.21,0.69,0.69,0,0,1,.53.21,0.81,0.81,0,0,1,.2.59,3.6,3.6,0,0,1-1.19,2.26L66.15,73a2.1,2.1,0,0,0,.52-1,0.86,0.86,0,0,0-.12-0.34A1,1,0,0,1,66.41,71.21Z" transform="translate(-3.68 -3.44)"/><path class="cls-7" d="M70.9,71.89V71.14l0.65-.22V66.82l-0.65-.26V65.84l2,0h0.82a2.65,2.65,0,0,1,2,.76,3.09,3.09,0,0,1,.72,2.2,3.24,3.24,0,0,1-.78,2.29,2.73,2.73,0,0,1-2.1.84H70.9Zm2-5.07v4.06H73.6a1.22,1.22,0,0,0,1-.48A2.69,2.69,0,0,0,75,68.8a2.63,2.63,0,0,0-.34-1.52,1.16,1.16,0,0,0-1-.47H72.89Z" transform="translate(-3.68 -3.44)"/><path class="cls-7" d="M77.21,71.89V71.14l0.65-.22V66.82l-0.65-.26V65.84l2,0H80a2.65,2.65,0,0,1,2,.76,3.09,3.09,0,0,1,.72,2.2A3.24,3.24,0,0,1,82,71.05a2.73,2.73,0,0,1-2.1.84H77.21Zm2-5.07v4.06h0.72a1.22,1.22,0,0,0,1-.48,2.69,2.69,0,0,0,.36-1.59A2.63,2.63,0,0,0,81,67.28a1.16,1.16,0,0,0-1-.47H79.2Z" transform="translate(-3.68 -3.44)"/><path class="cls-7" d="M84.47,70l0.13,0.73a1.8,1.8,0,0,0,.85.18,1.4,1.4,0,0,0,.74-0.19,0.58,0.58,0,0,0,.3-0.52,0.51,0.51,0,0,0-.22-0.41,1.56,1.56,0,0,0-.54-0.27,6.54,6.54,0,0,1-.7-0.25,6.31,6.31,0,0,1-.7-0.35,1.48,1.48,0,0,1-.54-0.55,1.68,1.68,0,0,1-.22-0.87,1.62,1.62,0,0,1,.61-1.35,2.49,2.49,0,0,1,1.59-.48,5.08,5.08,0,0,1,.91.09,5.65,5.65,0,0,1,.73.17L87.67,66l0,1.57h-0.8l-0.22-.74a2.38,2.38,0,0,0-.76-0.13,1.14,1.14,0,0,0-.68.17,0.52,0.52,0,0,0-.24.44,0.51,0.51,0,0,0,.22.41,1.61,1.61,0,0,0,.54.27c0.22,0.07.45,0.15,0.7,0.25a6.76,6.76,0,0,1,.7.34,1.49,1.49,0,0,1,.54.54,1.57,1.57,0,0,1,.22.83,1.8,1.8,0,0,1-.65,1.47,2.58,2.58,0,0,1-1.68.53,5.5,5.5,0,0,1-.92-0.08,5.84,5.84,0,0,1-.75-0.17l-0.26-.08V70h0.88Z" transform="translate(-3.68 -3.44)"/><path class="cls-4" d="M92.05,72.88H91V64.36h1v8.51Z" transform="translate(-3.68 -3.44)"/><path class="cls-7" d="M97.1,65.79H98a2.3,2.3,0,0,1,1.39.38,1.3,1.3,0,0,1,.51,1.12,1.36,1.36,0,0,1-1,1.43,1.42,1.42,0,0,1,1.24,1.38q0,1.79-2.25,1.79H95.14V71.14l0.65-.22V66.82l-0.65-.26V65.84Zm0,1v1.47h0.5a0.79,0.79,0,0,0,1-.8,0.6,0.6,0,0,0-.2-0.5,0.8,0.8,0,0,0-.53-0.17H97.1Zm0.5,2.38H97.1v1.69h0.72a1,1,0,0,0,.69-0.21,0.72,0.72,0,0,0,.24-0.57,0.83,0.83,0,0,0-.28-0.69A1.38,1.38,0,0,0,97.6,69.19Z" transform="translate(-3.68 -3.44)"/><path class="cls-7" d="M103.11,67.13a2.09,2.09,0,0,1,1.61.61,2.44,2.44,0,0,1,.57,1.72,2.58,2.58,0,0,1-.63,1.83A2.18,2.18,0,0,1,103,72q-2.2,0-2.2-2.38a2.49,2.49,0,0,1,.63-1.81A2.26,2.26,0,0,1,103.11,67.13Zm0,1a0.83,0.83,0,0,0-.72.32,2,2,0,0,0-.23,1.11,2.09,2.09,0,0,0,.22,1.08A0.76,0.76,0,0,0,103,71a0.78,0.78,0,0,0,.7-0.34,2.12,2.12,0,0,0,.23-1.13,2,2,0,0,0-.21-1A0.73,0.73,0,0,0,103.06,68.13Z" transform="translate(-3.68 -3.44)"/><path class="cls-7" d="M110.52,71.83l-1.71.06-0.16-.56-0.21.18a2.8,2.8,0,0,1-.5.29,1.58,1.58,0,0,1-.7.18,1.33,1.33,0,0,1-1-.36,1.35,1.35,0,0,1-.35-1q0-1.43,2.07-1.43h0.6V68.72a0.58,0.58,0,0,0-.67-0.65,2.14,2.14,0,0,0-.39,0l-0.29.07-0.09,0-0.13.56h-0.78l-0.06-1.28a6.05,6.05,0,0,1,1.88-.35,2,2,0,0,1,1.39.38,1.78,1.78,0,0,1,.41,1.33V71l0.65,0.16v0.69Zm-3.36-1.34a0.45,0.45,0,0,0,.51.52,0.91,0.91,0,0,0,.44-0.12,1.6,1.6,0,0,0,.36-0.26l0.13-.12V69.93h-0.49a1.46,1.46,0,0,0-.72.13A0.46,0.46,0,0,0,107.15,70.49Z" transform="translate(-3.68 -3.44)"/><path class="cls-7" d="M111,67.29l1.79-.07,0.08,0.6,0.19-.19a2.82,2.82,0,0,1,.44-0.3,1.14,1.14,0,0,1,.57-0.19,2.09,2.09,0,0,1,.4,0,1.49,1.49,0,0,1,.29.08l0.09,0-0.07,1.64H114l-0.13-.73a1,1,0,0,0-.46.12,1.41,1.41,0,0,0-.35.24l-0.12.12V71l0.82,0.22v0.69H111V71.2L111.7,71V68.16L111,68V67.29Z" transform="translate(-3.68 -3.44)"/><path class="cls-7" d="M120.19,71.83l-1.82.06-0.08-.46A1.78,1.78,0,0,1,117,72a1.54,1.54,0,0,1-1.33-.61,2.85,2.85,0,0,1-.44-1.7,2.63,2.63,0,0,1,.62-1.88,2.4,2.4,0,0,1,1.83-.65,1.87,1.87,0,0,1,.56.09v-1.1L117.53,66V65.26l2-.07V71l0.69,0.17v0.69Zm-2-1.36V68.26a1.34,1.34,0,0,0-.67-0.13q-1,0-1,1.47T117.39,71a0.88,0.88,0,0,0,.45-0.12,1,1,0,0,0,.3-0.25Z" transform="translate(-3.68 -3.44)"/><path class="cls-7" d="M120.84,70.07V69h2.45v1.08h-2.45Z" transform="translate(-3.68 -3.44)"/><path class="cls-7" d="M127.94,66.91a3,3,0,0,0-1-.14q-1.43,0-1.43,2.12t1.47,2a2.27,2.27,0,0,0,.79-0.15,2.87,2.87,0,0,0,.64-0.31l0.22-.15,0.48,0.78-0.1.1-0.3.23a3.29,3.29,0,0,1-.48.29,3.75,3.75,0,0,1-.63.22,2.82,2.82,0,0,1-.76.1,2.64,2.64,0,0,1-2-.78,3.25,3.25,0,0,1-.72-2.28,3.4,3.4,0,0,1,.79-2.38,2.73,2.73,0,0,1,2.13-.87,5.69,5.69,0,0,1,1.74.3L129,66.1l0,1.64h-0.85Z" transform="translate(-3.68 -3.44)"/><path class="cls-7" d="M133.92,69.81l-2.87,0a1.28,1.28,0,0,0,.32.83,1,1,0,0,0,.72.29,2.59,2.59,0,0,0,.68-0.1,2.94,2.94,0,0,0,.56-0.2l0.21-.1,0.37,0.69-0.27.2a3.89,3.89,0,0,1-.69.32,2.78,2.78,0,0,1-1,.2,2.19,2.19,0,0,1-1.67-.61,2.42,2.42,0,0,1-.57-1.72,2.62,2.62,0,0,1,.61-1.83,2.17,2.17,0,0,1,1.69-.68,1.9,1.9,0,0,1,1.46.54,2.09,2.09,0,0,1,.51,1.49Zm-2-1.67a0.74,0.74,0,0,0-.57.24,1.15,1.15,0,0,0-.27.65h1.56A0.72,0.72,0,0,0,131.92,68.15Z" transform="translate(-3.68 -3.44)"/><path class="cls-7" d="M134.51,67.29l1.79-.07,0.08,0.6,0.19-.19a2.82,2.82,0,0,1,.44-0.3,1.14,1.14,0,0,1,.57-0.19,2.09,2.09,0,0,1,.4,0,1.49,1.49,0,0,1,.29.08l0.09,0-0.07,1.64h-0.75l-0.13-.73a1,1,0,0,0-.46.12,1.41,1.41,0,0,0-.35.24l-0.12.12V71l0.82,0.22v0.69h-2.78V71.2L135.2,71V68.16L134.51,68V67.29Z" transform="translate(-3.68 -3.44)"/><path class="cls-7" d="M140.65,72a1,1,0,0,1-1-.46,3.46,3.46,0,0,1-.27-1.61V68.29h-0.8V67.46l0.8-.11V66.16l1.27-.23v1.43h1.21v0.93h-1.21v2a1.36,1.36,0,0,0,.09.61,0.38,0.38,0,0,0,.36.17,1.48,1.48,0,0,0,.68-0.2l0.31,0.62A2.57,2.57,0,0,1,140.65,72Z" transform="translate(-3.68 -3.44)"/><path class="cls-7" d="M142.52,67.29l2-.07V71l0.61,0.22v0.69h-2.57V71.2l0.69-.22V68.16L142.52,68V67.29Zm0.53-1.5a0.75,0.75,0,0,1,.22-0.57,0.73,0.73,0,0,1,.52-0.21,0.67,0.67,0,0,1,.73.78,0.76,0.76,0,0,1-.22.58,0.71,0.71,0,0,1-.51.21,0.72,0.72,0,0,1-.55-0.2A0.81,0.81,0,0,1,143.05,65.79Z" transform="translate(-3.68 -3.44)"/><path class="cls-7" d="M146.54,67.31V66.92a1.84,1.84,0,0,1,.48-1.34,1.81,1.81,0,0,1,1.37-.49,3.71,3.71,0,0,1,.79.08,3.13,3.13,0,0,1,.55.16l0.17,0.08,0,1.28h-0.75L149,66a3.15,3.15,0,0,0-.5,0,0.63,0.63,0,0,0-.67.76v0.54h1.12l0,0.86h-1.1V71l0.83,0.22v0.69h-2.8V71.2l0.69-.22V68.17h-0.78V67.44Z" transform="translate(-3.68 -3.44)"/><path class="cls-7" d="M149.64,67.29l2-.07V71l0.61,0.22v0.69h-2.57V71.2l0.69-.22V68.16L149.64,68V67.29Zm0.53-1.5a0.75,0.75,0,0,1,.22-0.57,0.73,0.73,0,0,1,.52-0.21,0.67,0.67,0,0,1,.73.78,0.76,0.76,0,0,1-.22.58,0.71,0.71,0,0,1-.51.21,0.72,0.72,0,0,1-.55-0.2A0.81,0.81,0,0,1,150.17,65.79Z" transform="translate(-3.68 -3.44)"/><path class="cls-7" d="M157,69.81l-2.87,0a1.28,1.28,0,0,0,.32.83,1,1,0,0,0,.72.29,2.59,2.59,0,0,0,.68-0.1,2.91,2.91,0,0,0,.56-0.2l0.21-.1L157,71.25l-0.27.2a3.89,3.89,0,0,1-.69.32,2.78,2.78,0,0,1-1,.2,2.19,2.19,0,0,1-1.67-.61,2.42,2.42,0,0,1-.57-1.72,2.62,2.62,0,0,1,.61-1.83,2.17,2.17,0,0,1,1.69-.68,1.9,1.9,0,0,1,1.46.54,2.09,2.09,0,0,1,.51,1.49Zm-2-1.67a0.74,0.74,0,0,0-.58.24,1.16,1.16,0,0,0-.27.65h1.56A0.72,0.72,0,0,0,155,68.15Z" transform="translate(-3.68 -3.44)"/><path class="cls-7" d="M162.49,71.83l-1.82.06-0.08-.46a1.78,1.78,0,0,1-1.3.54,1.54,1.54,0,0,1-1.33-.61,2.85,2.85,0,0,1-.44-1.7,2.63,2.63,0,0,1,.62-1.88,2.4,2.4,0,0,1,1.83-.65,1.88,1.88,0,0,1,.56.09v-1.1L159.84,66V65.26l2-.07V71l0.69,0.17v0.69Zm-2-1.36V68.26a1.35,1.35,0,0,0-.67-0.13q-1,0-1,1.47T159.69,71a0.88,0.88,0,0,0,.45-0.12,1,1,0,0,0,.3-0.25Z" transform="translate(-3.68 -3.44)"/><path class="cls-7" d="M167.68,71.14v0.75H165V71.14l0.65-.22V66.82L165,66.56V65.84l2,0h0.82a2.28,2.28,0,0,1,1.54.48,1.67,1.67,0,0,1,.56,1.33,2,2,0,0,1-.64,1.62,2.73,2.73,0,0,1-1.83.54H167v1.15ZM167,66.82v1.94h0.46a1.24,1.24,0,0,0,.83-0.25,0.91,0.91,0,0,0,.29-0.73,1,1,0,0,0-.23-0.7,0.82,0.82,0,0,0-.66-0.27H167Z" transform="translate(-3.68 -3.44)"/><path class="cls-7" d="M174.65,69.81l-2.87,0a1.28,1.28,0,0,0,.32.83,1,1,0,0,0,.72.29,2.59,2.59,0,0,0,.68-0.1,2.91,2.91,0,0,0,.56-0.2l0.21-.1,0.37,0.69-0.27.2a3.89,3.89,0,0,1-.69.32,2.78,2.78,0,0,1-1,.2,2.19,2.19,0,0,1-1.67-.61,2.42,2.42,0,0,1-.57-1.72,2.62,2.62,0,0,1,.61-1.83,2.17,2.17,0,0,1,1.69-.68,1.9,1.9,0,0,1,1.46.54,2.09,2.09,0,0,1,.51,1.49Zm-2-1.67a0.74,0.74,0,0,0-.58.24,1.16,1.16,0,0,0-.27.65h1.56A0.72,0.72,0,0,0,172.65,68.15Z" transform="translate(-3.68 -3.44)"/><path class="cls-7" d="M180.19,71.83l-1.82.06-0.08-.46A1.78,1.78,0,0,1,177,72a1.54,1.54,0,0,1-1.33-.61,2.85,2.85,0,0,1-.44-1.7,2.63,2.63,0,0,1,.62-1.88,2.4,2.4,0,0,1,1.83-.65,1.88,1.88,0,0,1,.56.09v-1.1L177.53,66V65.26l2-.07V71l0.69,0.17v0.69Zm-2-1.36V68.26a1.35,1.35,0,0,0-.67-0.13q-1,0-1,1.47T177.39,71a0.88,0.88,0,0,0,.45-0.12,1,1,0,0,0,.3-0.25Z" transform="translate(-3.68 -3.44)"/><path class="cls-7" d="M180.64,67.29l2-.07V71l0.61,0.22v0.69h-2.57V71.2l0.69-.22V68.16L180.64,68V67.29Zm0.53-1.5a0.75,0.75,0,0,1,.22-0.57,0.73,0.73,0,0,1,.52-0.21,0.67,0.67,0,0,1,.73.78,0.76,0.76,0,0,1-.22.58,0.71,0.71,0,0,1-.51.21,0.72,0.72,0,0,1-.55-0.2A0.81,0.81,0,0,1,181.17,65.79Z" transform="translate(-3.68 -3.44)"/><path class="cls-7" d="M188.36,71.83l-1.71.06-0.16-.56-0.21.18a2.78,2.78,0,0,1-.5.29,1.57,1.57,0,0,1-.7.18,1.33,1.33,0,0,1-1-.36,1.35,1.35,0,0,1-.35-1q0-1.43,2.07-1.43h0.61V68.72a0.58,0.58,0,0,0-.67-0.65,2.12,2.12,0,0,0-.39,0l-0.29.07-0.09,0-0.13.56H184.1L184,67.48a6.05,6.05,0,0,1,1.88-.35,2,2,0,0,1,1.39.38,1.78,1.78,0,0,1,.41,1.33V71l0.65,0.16v0.69ZM185,70.49a0.45,0.45,0,0,0,.51.52,0.9,0.9,0,0,0,.44-0.12,1.58,1.58,0,0,0,.36-0.26l0.13-.12V69.93h-0.49a1.46,1.46,0,0,0-.72.13A0.46,0.46,0,0,0,185,70.49Z" transform="translate(-3.68 -3.44)"/><path class="cls-7" d="M190.76,72a1,1,0,0,1-1-.46,3.46,3.46,0,0,1-.27-1.61V68.29h-0.8V67.46l0.8-.11V66.16l1.27-.23v1.43H192v0.93h-1.21v2a1.36,1.36,0,0,0,.09.61,0.38,0.38,0,0,0,.36.17,1.47,1.47,0,0,0,.68-0.2l0.31,0.62A2.57,2.57,0,0,1,190.76,72Z" transform="translate(-3.68 -3.44)"/><path class="cls-7" d="M192.63,67.29l1.79-.07,0.08,0.6,0.19-.19a2.78,2.78,0,0,1,.44-0.3,1.13,1.13,0,0,1,.57-0.19,2.09,2.09,0,0,1,.4,0,1.47,1.47,0,0,1,.29.08l0.09,0-0.07,1.64h-0.75l-0.13-.73a1,1,0,0,0-.46.12,1.43,1.43,0,0,0-.35.24l-0.12.12V71l0.82,0.22v0.69h-2.78V71.2l0.69-.22V68.16L192.63,68V67.29Z" transform="translate(-3.68 -3.44)"/><path class="cls-7" d="M196.87,67.29l2-.07V71l0.61,0.22v0.69h-2.57V71.2l0.69-.22V68.16L196.87,68V67.29Zm0.53-1.5a0.75,0.75,0,0,1,.22-0.57,0.73,0.73,0,0,1,.52-0.21,0.67,0.67,0,0,1,.73.78,0.76,0.76,0,0,1-.22.58,0.71,0.71,0,0,1-.51.21,0.72,0.72,0,0,1-.55-0.2A0.81,0.81,0,0,1,197.4,65.79Z" transform="translate(-3.68 -3.44)"/><path class="cls-7" d="M203.59,70.51L204,71.24a2.75,2.75,0,0,1-1.86.74,2.17,2.17,0,0,1-1.66-.62,2.4,2.4,0,0,1-.59-1.73,2.55,2.55,0,0,1,.63-1.82,2.29,2.29,0,0,1,1.75-.67,3.77,3.77,0,0,1,.71.07,4.32,4.32,0,0,1,.6.15l0.21,0.08,0,1.41H203l-0.12-.62a2.23,2.23,0,0,0-.6-0.07,0.91,0.91,0,0,0-.75.32,1.51,1.51,0,0,0-.26,1,2,2,0,0,0,.27,1.12,0.92,0.92,0,0,0,.81.39,1.69,1.69,0,0,0,.33,0,1.55,1.55,0,0,0,.3-0.09l0.23-.1,0.22-.13Z" transform="translate(-3.68 -3.44)"/><path class="cls-7" d="M206.59,71.89V71.14l0.65-.22V66.82l-0.65-.26V65.84l2,0h0.82a2.66,2.66,0,0,1,2,.76,3.09,3.09,0,0,1,.72,2.2,3.24,3.24,0,0,1-.78,2.29,2.72,2.72,0,0,1-2.1.84h-2.68Zm2-5.07v4.06h0.72a1.22,1.22,0,0,0,1-.48,2.69,2.69,0,0,0,.36-1.59,2.63,2.63,0,0,0-.34-1.52,1.16,1.16,0,0,0-1-.47h-0.78Z" transform="translate(-3.68 -3.44)"/><path class="cls-7" d="M217,69.81l-2.87,0a1.28,1.28,0,0,0,.32.83,1,1,0,0,0,.72.29,2.59,2.59,0,0,0,.68-0.1,2.91,2.91,0,0,0,.56-0.2l0.21-.1L217,71.25l-0.27.2a3.89,3.89,0,0,1-.69.32,2.78,2.78,0,0,1-1,.2,2.19,2.19,0,0,1-1.67-.61,2.42,2.42,0,0,1-.57-1.72,2.62,2.62,0,0,1,.61-1.83,2.17,2.17,0,0,1,1.69-.68,1.9,1.9,0,0,1,1.46.54,2.09,2.09,0,0,1,.51,1.49Zm-2-1.67a0.74,0.74,0,0,0-.58.24,1.16,1.16,0,0,0-.27.65h1.56A0.72,0.72,0,0,0,215,68.15Z" transform="translate(-3.68 -3.44)"/><path class="cls-7" d="M217.57,67.29l1.79-.07,0.06,0.6,0.25-.19a4,4,0,0,1,.57-0.29,1.93,1.93,0,0,1,.77-0.19,1.16,1.16,0,0,1,1,.41,1.75,1.75,0,0,1,.33,1.13V71l0.32,0.11,0.29,0.1v0.69h-2.33V71.2L221,71V68.89a0.76,0.76,0,0,0-.16-0.5,0.53,0.53,0,0,0-.43-0.19,1,1,0,0,0-.47.13,1.37,1.37,0,0,0-.34.25l-0.11.12V71L220,71.2v0.69h-2.39V71.2l0.67-.22V68.16L217.57,68V67.29Z" transform="translate(-3.68 -3.44)"/><path class="cls-7" d="M225.31,72a1,1,0,0,1-1-.46,3.46,3.46,0,0,1-.27-1.61V68.29h-0.8V67.46l0.8-.11V66.16l1.27-.23v1.43h1.21v0.93h-1.21v2a1.36,1.36,0,0,0,.09.61,0.38,0.38,0,0,0,.36.17,1.47,1.47,0,0,0,.68-0.2l0.31,0.62A2.57,2.57,0,0,1,225.31,72Z" transform="translate(-3.68 -3.44)"/><path class="cls-7" d="M227.18,67.29l2-.07V71l0.61,0.22v0.69h-2.57V71.2l0.69-.22V68.16L227.18,68V67.29Zm0.53-1.5a0.75,0.75,0,0,1,.22-0.57,0.73,0.73,0,0,1,.52-0.21,0.67,0.67,0,0,1,.73.78,0.76,0.76,0,0,1-.22.58,0.71,0.71,0,0,1-.51.21,0.72,0.72,0,0,1-.55-0.2A0.81,0.81,0,0,1,227.71,65.79Z" transform="translate(-3.68 -3.44)"/><path class="cls-7" d="M231.13,70.38L231.19,71a2.52,2.52,0,0,0,.71.09q0.68,0,.68-0.47a0.41,0.41,0,0,0-.23-0.34,2.53,2.53,0,0,0-.57-0.25,6.68,6.68,0,0,1-.67-0.25,1.43,1.43,0,0,1-.57-0.44,1.12,1.12,0,0,1-.23-0.72,1.27,1.27,0,0,1,.51-1.12,2.15,2.15,0,0,1,1.27-.36,4.62,4.62,0,0,1,.75.07q0.4,0.06.64,0.13l0.22,0.07q0,0.43,0,1.3H232.9l-0.13-.56A1.63,1.63,0,0,0,232.2,68a0.69,0.69,0,0,0-.42.12,0.38,0.38,0,0,0-.16.32,0.39,0.39,0,0,0,.24.34,2.71,2.71,0,0,0,.57.24l0.67,0.24a1.42,1.42,0,0,1,.58.42,1.06,1.06,0,0,1,.24.7,1.36,1.36,0,0,1-.54,1.15,2.33,2.33,0,0,1-1.45.41,6.51,6.51,0,0,1-.76,0l-0.61-.09-0.22-.05V70.38h0.79Z" transform="translate(-3.68 -3.44)"/><path class="cls-7" d="M236.42,72a1,1,0,0,1-1-.46,3.46,3.46,0,0,1-.27-1.61V68.29h-0.8V67.46l0.8-.11V66.16l1.27-.23v1.43h1.21v0.93h-1.21v2a1.36,1.36,0,0,0,.09.61,0.38,0.38,0,0,0,.36.17,1.47,1.47,0,0,0,.68-0.2l0.31,0.62A2.57,2.57,0,0,1,236.42,72Z" transform="translate(-3.68 -3.44)"/></svg>